<?xml version="1.0" encoding="iso-8859-1"?>
<!-- Uploaded to: SVG Repo, www.svgrepo.com, Generator: SVG Repo Mixer Tools -->
<!DOCTYPE svg PUBLIC "-//W3C//DTD SVG 1.1//EN" "http://www.w3.org/Graphics/SVG/1.1/DTD/svg11.dtd">
<svg fill="#FFFFFF" version="1.1" id="Capa_1" xmlns="http://www.w3.org/2000/svg" xmlns:xlink="http://www.w3.org/1999/xlink"
	 viewBox="0 0 300.049 300.049" xml:space="preserve">
<g>
	<rect x="280" y="46.103" width="20" height="17"/>
	<rect x="240" y="46.103" width="20" height="17"/>
	<rect x="0" y="46.103" width="20" height="17"/>
	<rect x="80" y="46.103" width="20" height="17"/>
	<rect x="40" y="46.103" width="20" height="17"/>
	<rect x="160" y="46.103" width="20" height="17"/>
	<rect x="120" y="46.103" width="20" height="17"/>
	<rect x="200" y="46.103" width="20" height="17"/>
	<rect x="280" y="236.945" width="20" height="17"/>
	<rect x="120" y="236.945" width="20" height="17"/>
	<rect x="0" y="236.945" width="20" height="17"/>
	<rect x="80" y="236.945" width="20" height="17"/>
	<rect x="200" y="236.945" width="20" height="17"/>
	<rect x="160" y="236.945" width="20" height="17"/>
	<rect x="240" y="236.945" width="20" height="17"/>
	<rect x="40" y="236.945" width="20" height="17"/>
	<polygon points="21.174,101.766 0.352,101.766 0.352,198.283 21.199,198.283 21.199,166.764 21.174,166.764 	"/>
	<rect x="27.508" y="140.371" width="27.281" height="17.324"/>
	<rect x="27.508" y="101.766" width="33.715" height="17.322"/>
	<path d="M68.811,147.549v4.951c0,32.047,11.258,46.211,35.119,47.313V182.4c-10.785-1.402-14.012-11.961-14.012-29.9v-4.951
		c0-17.941,3.227-28.5,14.012-29.902v-17.412C80.068,101.338,68.811,115.502,68.811,147.549z"/>
	<path d="M110.264,100.24v17.406c10.769,1.404,13.885,11.963,13.885,29.902v4.951c0,17.938-3.115,28.496-13.885,29.9v17.406
		c23.896-1.141,35.119-15.311,35.119-47.307v-4.951C145.383,115.551,134.16,101.383,110.264,100.24z"/>
	<path d="M258.596,182.4c-10.785-1.402-14.012-11.961-14.012-29.9v-4.951c0-17.941,3.227-28.5,14.012-29.902v-17.412
		c-23.861,1.104-35.119,15.268-35.119,47.314v4.951c0,32.047,11.258,46.211,35.119,47.313V182.4z"/>
	<path d="M264.93,100.24v17.406c10.769,1.404,13.885,11.963,13.885,29.902v4.951c0,17.938-3.115,28.496-13.885,29.9v17.406
		c23.898-1.141,35.119-15.311,35.119-47.307v-4.951C300.049,115.551,288.828,101.383,264.93,100.24z"/>
	<rect x="172.404" y="125.422" width="20.848" height="72.861"/>
	<rect x="149.24" y="101.766" width="67.307" height="17.322"/>
</g>
</svg>