<?xml version="1.0" encoding="iso-8859-1"?>
<!-- Uploaded to: SVG Repo, www.svgrepo.com, Generator: SVG Repo Mixer Tools -->
<svg fill="#FFFFFF" height="800px" width="800px" version="1.1" id="Layer_1" xmlns="http://www.w3.org/2000/svg" xmlns:xlink="http://www.w3.org/1999/xlink"
	 viewBox="0 0 511.999 511.999" xml:space="preserve">
<g>
	<g>
		<path d="M8.477,128.571c-4.682,0-8.477,3.796-8.477,8.477v11.77c0,4.682,3.796,8.477,8.477,8.477h0.06v10.438h32.526
			c0-8.927,0-17.141,0-39.163H8.477z"/>
	</g>
</g>
<g>
	<g>
		<path d="M92.351,128.57H59.765v0.001c0,21.826,0,30.245,0,39.163h32.526v-10.439h0.06c4.682,0,8.477-3.796,8.477-8.477v-11.77
			C100.828,132.365,97.033,128.57,92.351,128.57z"/>
	</g>
</g>
<g>
	<g>
		<path d="M112.601,480.572c0,0,0-126.313,0-126.313l-24.686-6.189v132.502c0,12.547,10.171,22.719,22.719,22.719
			c3.068,0,5.989-0.615,8.66-1.718C115.085,495.633,112.601,488.39,112.601,480.572z"/>
	</g>
</g>
<g>
	<g>
		<path d="M126.302,357.694v122.879c0,12.547,10.171,22.719,22.719,22.719s22.719-10.171,22.719-22.719V369.086
			C166.346,367.734,131.533,359.005,126.302,357.694z"/>
	</g>
</g>
<g>
	<g>
		<circle cx="205.76" cy="70.385" r="39.244"/>
	</g>
</g>
<g>
	<g>
		<path d="M197.632,202.322l-13.677-48.561l17.44,29.547l8.861-1.926l1.954-30.164c0.761-11.754-6.315-22.161-16.905-24.816
			c-13.639-3.419-23.231-5.825-38.368-9.619c-10.629-2.665-21.736,3.176-26.613,13.906l-4.233,9.314l-33.8,51.882v-5.447H59.765
			v19.129l-18.702,7.52v-26.647H8.537v30.685c0,4.596,3.661,8.33,8.225,8.465c-4.017,5.128-5.277,12.19-2.673,18.669
			c3.888,9.668,14.875,14.347,24.533,10.462l43.225-17.379l-31.91,70.203c-2.748,6.045,0.298,13.035,6.194,14.513
			c28.664,7.187,102.571,25.716,131.215,32.897c5.936,1.487,11.88-3.261,12.308-9.875l5.82-89.873
			c-9.765,2.123-10.857,2.36-20.809,4.524c-16.848,3.663-33.436-8.735-33.842-26.836l-0.954-60.295l1.707-2.62l16.362,58.096
			c2.549,9.052,11.705,14.552,20.891,12.555l32.952-7.163c-1.304-16.181,7.404-32.192,22.986-39.43l7.939-3.688L197.632,202.322z"/>
	</g>
</g>
<g>
	<g>
		<circle cx="307.262" cy="51.967" r="43.259"/>
	</g>
</g>
<g>
	<g>
		<path d="M415.455,276.127c0,0.001,0.001,0.003,0.001,0.006C415.455,276.131,415.455,276.128,415.455,276.127z"/>
	</g>
</g>
<g>
	<g>
		<path d="M415.445,276.072c-0.001-0.004-0.001-0.009-0.002-0.013c0.001,0.007,0.002,0.017,0.004,0.027
			C415.447,276.081,415.446,276.075,415.445,276.072z"/>
	</g>
</g>
<g>
	<g>
		<path d="M504.591,116.986c-0.179-0.037-0.379-0.07-0.591-0.102c0.184-0.11,0.358-0.217,0.509-0.317
			c4.256-2.82,5.419-8.557,2.599-12.814c-2.82-4.257-8.557-5.419-12.814-2.599c-0.152,0.1-0.318,0.218-0.491,0.345
			c0.053-0.208,0.1-0.405,0.136-0.584c1.015-5.004-2.219-9.884-7.223-10.898c-5.004-1.015-9.884,2.219-10.899,7.223
			c-0.037,0.179-0.07,0.379-0.102,0.591c-0.11-0.184-0.217-0.358-0.317-0.509c-2.82-4.256-8.557-5.419-12.814-2.599
			c-4.256,2.821-5.419,8.557-2.599,12.814c0.1,0.151,0.219,0.318,0.345,0.49c-0.208-0.053-0.405-0.1-0.584-0.135
			c-5.004-1.015-9.884,2.219-10.899,7.223c-1.014,5.004,2.219,9.884,7.223,10.898c0.179,0.037,0.379,0.07,0.591,0.102
			c-0.184,0.11-0.358,0.217-0.509,0.317c-4.256,2.821-5.419,8.557-2.599,12.814c0.75,1.132,1.711,2.038,2.791,2.716
			c-6.855,11.116-12.013,23.812-15.399,37.882c-2.537-8.128-5.635-16.078-9.345-23.616c-1.44-2.926-5.902-1.053-4.811,2.025
			c4.632,13.068,7.38,27.031,8.623,40.848l-31.767-16.267l-13.549-56.33c-2.509-14.808-16.547-24.777-31.355-22.268l-49.096,8.32
			c-14.808,2.509-24.777,16.547-22.268,31.355l4.765,28.121l15.595-7.243l21.776-30.362l-15.896,48.637l-60.826,28.251
			c-10.455,4.856-14.993,17.268-10.138,27.723c4.856,10.457,17.268,14.993,27.723,10.138l69.056-32.074
			c5.248-2.437,9.249-6.945,11.047-12.446l18.714-57.26l-0.605,63.179c-0.084,8.858-5.333,16.458-12.858,19.969
			c-10.897,5.053-1.776,0.82-49.755,23.103l5.718,33.746l-0.014,192.386c-0.001,12.984,10.525,23.511,23.508,23.512
			c0.001,0,0.001,0,0.002,0c12.983,0,23.51-10.525,23.511-23.508l0.014-193.833l9.554-1.62l0.503,195.512
			c0.034,12.964,10.553,23.45,23.51,23.45c0.02,0,0.041,0,0.061,0c12.984-0.033,23.483-10.586,23.45-23.571l-0.305-203.393
			c-0.004-0.024-0.008-0.046-0.011-0.067c0,0-0.001-0.004-0.002-0.012c0,0.002,0.001,0.004,0.001,0.006
			c-0.003-0.017-0.006-0.032-0.008-0.047c0.001,0.01,0.003,0.018,0.004,0.026c-0.001-0.009-0.003-0.021-0.006-0.034
			c-0.004-0.026-0.008-0.049-0.011-0.067c0.001,0.008,0.002,0.016,0.003,0.022c-0.002-0.011-0.004-0.022-0.007-0.037
			c0,0.003,0.001,0.006,0.001,0.009c-0.003-0.017-0.006-0.031-0.007-0.042c0,0,0,0.001,0,0.002c-0.001-0.004-0.002-0.01-0.002-0.016
			c-0.002-0.014-0.003-0.021-0.004-0.024c0,0.002,0.001,0.007,0.002,0.012c-0.001-0.006-0.001-0.009-0.002-0.014
			c-0.207-1.216-1.434-8.46-7.473-44.101l29.466,15.089c1.802,17.508,4.905,29.321,5.095,30.035c0.93,3.477,4.501,5.534,7.968,4.609
			c3.473-0.926,5.538-4.493,4.615-7.968c-0.073-0.276-2.169-8.412-3.827-21.011c8.564,1.052,17.07-3.286,21.125-11.206
			c5.254-10.26,1.195-22.837-9.065-28.091l-5.794-2.967c4.319-11.468,9.8-22.664,16.529-32.834c1.796-2.715-2.068-5.626-4.18-3.127
			c-7.527,8.913-14.097,18.884-19.694,29.27c1.851-18.612,6.797-38.278,17.471-55.388c1.263,2.306,3.491,4.062,6.269,4.625
			c5.004,1.015,9.884-2.219,10.899-7.223c0.037-0.178,0.07-0.379,0.102-0.591c0.11,0.184,0.217,0.358,0.317,0.509
			c2.821,4.256,8.557,5.419,12.814,2.599c4.256-2.82,5.419-8.557,2.599-12.814c-0.1-0.152-0.219-0.318-0.345-0.49
			c0.208,0.053,0.405,0.1,0.584,0.135c5.004,1.015,9.884-2.219,10.899-7.223C512.829,122.881,509.595,118.001,504.591,116.986z
			 M490.899,123.643c-1.184,5.836-6.875,9.607-12.711,8.424c-5.836-1.184-9.607-6.875-8.424-12.711
			c1.184-5.836,6.875-9.608,12.711-8.424C488.312,112.115,492.083,117.807,490.899,123.643z"/>
	</g>
</g>
<g>
	<g>
		<path d="M415.473,276.234c0.001,0.006,0.002,0.011,0.002,0.016C415.475,276.245,415.474,276.241,415.473,276.234z"/>
	</g>
</g>
<g>
	<g>
		<path d="M78.28,89.47c-6.642,0-20.242,7.261-27.865,11.658C42.79,96.732,29.191,89.47,22.55,89.47
			c-9.999,0-18.134,8.135-18.134,18.136c-0.001,2.676,2.168,4.844,4.844,4.844c16.155,0,66.157,0,82.312,0
			c2.676,0,4.844-2.169,4.844-4.844C96.415,97.605,88.28,89.47,78.28,89.47z M15.634,102.761c1.528-2.177,4.059-3.602,6.916-3.602
			c1.736,0,5.548,1.443,10.141,3.602H15.634z M68.135,102.761c4.593-2.159,8.406-3.602,10.145-3.602
			c2.857,0,5.386,1.425,6.916,3.602H68.135z"/>
	</g>
</g>
</svg>