<svg xmlns="http://www.w3.org/2000/svg" xmlns:xlink="http://www.w3.org/1999/xlink" width="139" zoomAndPan="magnify" viewBox="0 0 104.25 32.249999" height="43" preserveAspectRatio="xMidYMid meet" version="1.0"><defs><clipPath id="2e690030f3"><path d="M 10 1.269531 L 43 1.269531 L 43 30.589844 L 10 30.589844 Z M 10 1.269531 " clip-rule="nonzero"/></clipPath><clipPath id="aed7887674"><path d="M 9.292969 1.269531 L 43 1.269531 L 43 30.589844 L 9.292969 30.589844 Z M 9.292969 1.269531 " clip-rule="nonzero"/></clipPath></defs><g clip-path="url(#2e690030f3)"><path fill="#ffffff" d="M 12.386719 9.1875 C 11.164062 8.710938 10.40625 7.578125 10.40625 6.265625 C 10.398438 4.988281 11.074219 3.863281 11.988281 3.023438 C 12.925781 2.164062 14.027344 1.648438 15.3125 1.851562 C 16.5 2.039062 17.425781 2.75 18.113281 3.695312 C 17.542969 3.929688 16.992188 4.207031 16.464844 4.527344 C 15.476562 3.71875 13.894531 3.75 13.019531 4.71875 C 12.175781 5.652344 12.429688 6.90625 13.324219 7.652344 C 12.992188 8.152344 12.695312 8.667969 12.425781 9.199219 C 12.410156 9.195312 12.402344 9.191406 12.386719 9.1875 Z M 38.488281 9.765625 C 39.824219 12.496094 40.125 15.753906 40.074219 18.753906 C 40.007812 22.585938 38.839844 26.253906 35.285156 28.164062 C 34.648438 28.503906 33.988281 28.804688 33.308594 29.050781 C 31.6875 29.648438 29.980469 29.984375 28.261719 30.128906 C 26.527344 30.273438 24.820312 30.183594 23.097656 29.96875 C 22.671875 29.914062 22.238281 29.855469 21.8125 29.792969 C 20.476562 29.59375 19.148438 29.34375 17.855469 28.964844 C 16.578125 28.59375 15.324219 28.09375 14.195312 27.382812 C 13.097656 26.691406 12.136719 25.785156 11.457031 24.675781 C 9.820312 22.011719 9.871094 18.445312 10.515625 15.492188 C 11.207031 12.3125 12.582031 8.738281 14.84375 6.335938 C 18.738281 2.207031 25.980469 2.105469 30.980469 3.84375 C 34.105469 4.933594 36.988281 6.710938 38.488281 9.765625 Z M 18.75 13.347656 C 18.796875 13.167969 18.542969 13.105469 18.503906 13.289062 C 18.386719 13.824219 18.082031 14.445312 17.46875 14.519531 C 16.726562 14.613281 16.570312 13.570312 16.5625 13.042969 C 16.554688 12.707031 16.082031 12.71875 16.101562 13.0625 C 16.132812 13.785156 16.488281 14.839844 17.359375 14.855469 C 18.214844 14.863281 18.570312 14.046875 18.75 13.347656 Z M 27.542969 14.375 C 25.375 13.050781 22.003906 13.144531 20.128906 14.957031 C 18.40625 16.617188 17.925781 19.660156 18.195312 21.941406 C 18.375 23.445312 19.042969 24.859375 20.402344 25.609375 C 21.054688 25.96875 21.769531 26.210938 22.5 26.351562 C 22.867188 26.417969 23.246094 26.464844 23.621094 26.480469 C 24.390625 26.511719 25.167969 26.554688 25.921875 26.359375 C 26.527344 26.203125 27.097656 25.910156 27.578125 25.507812 C 28.578125 24.679688 29.191406 23.457031 29.5 22.214844 C 29.539062 22.074219 29.570312 21.933594 29.597656 21.796875 C 30.121094 19.199219 30.046875 15.914062 27.542969 14.375 Z M 35.011719 14.136719 C 35.042969 13.921875 34.722656 13.902344 34.679688 14.105469 C 34.566406 14.675781 34.152344 15.585938 33.492188 15.660156 C 32.636719 15.757812 32.703125 14.425781 32.78125 13.890625 C 32.816406 13.625 32.40625 13.589844 32.371094 13.851562 C 32.269531 14.597656 32.371094 15.992188 33.375 16.042969 C 34.328125 16.089844 34.886719 14.929688 35.011719 14.136719 Z M 29.351562 20.363281 C 29.246094 21.765625 28.976562 23.207031 28.136719 24.371094 C 28.082031 24.445312 28.027344 24.523438 27.96875 24.59375 C 27.042969 25.734375 25.589844 26.195312 24.160156 26.179688 C 23.996094 26.179688 23.832031 26.148438 23.671875 26.128906 C 23.355469 26.09375 23.039062 26.050781 22.722656 25.992188 C 22.125 25.886719 21.527344 25.730469 20.972656 25.476562 C 19.796875 24.9375 19.019531 23.945312 18.699219 22.695312 C 18.191406 20.691406 18.546875 17.949219 19.621094 16.164062 C 20.976562 13.917969 24.019531 13.359375 26.367188 14.199219 C 29.085938 15.171875 29.542969 17.796875 29.351562 20.363281 Z M 26.289062 16.269531 C 26.25 15.25 25.078125 14.839844 24.222656 14.882812 C 23.464844 14.917969 22.574219 15.347656 22.730469 16.25 C 22.839844 16.890625 23.484375 17.332031 24.121094 17.394531 C 23.941406 17.992188 23.878906 18.59375 23.773438 19.203125 C 23.65625 19.878906 23.5 20.535156 23.429688 21.214844 C 22.90625 21.011719 22.550781 20.222656 22.304688 19.738281 C 22.183594 19.503906 21.804688 19.695312 21.9375 19.914062 C 22.308594 20.5 22.78125 21.710938 23.621094 21.671875 C 24.46875 21.628906 25.253906 20.628906 25.710938 20.015625 C 25.800781 19.886719 25.613281 19.703125 25.503906 19.824219 C 25.109375 20.261719 24.695312 20.742188 24.203125 21.078125 C 24.042969 21.1875 23.898438 21.242188 23.753906 21.261719 C 23.847656 20.589844 23.886719 19.914062 24.019531 19.25 C 24.140625 18.644531 24.328125 18.054688 24.433594 17.441406 C 25.234375 17.507812 26.324219 17.238281 26.289062 16.269531 Z M 38.457031 3.414062 C 37.042969 3.230469 35.808594 4.113281 34.992188 5.21875 C 35.589844 5.59375 36.136719 6.007812 36.625 6.464844 C 37.578125 5.675781 39.078125 6.085938 39.765625 7.027344 C 40.519531 8.0625 40.226562 9.4375 39.175781 10.136719 C 39.167969 10.144531 39.160156 10.144531 39.15625 10.148438 C 39.308594 10.511719 39.441406 10.882812 39.558594 11.273438 C 42.214844 10.652344 43.246094 7.515625 41.710938 5.320312 C 40.96875 4.25 39.734375 3.582031 38.457031 3.414062 Z M 38.457031 3.414062 " fill-opacity="1" fill-rule="nonzero"/></g><g clip-path="url(#aed7887674)"><path fill="#000000" d="M 38.496094 3.023438 C 36.878906 2.8125 35.460938 3.617188 34.5625 4.957031 C 34.464844 4.902344 34.367188 4.847656 34.265625 4.792969 C 31.203125 3.167969 27.8125 2.332031 24.34375 2.472656 C 22.410156 2.550781 20.394531 2.835938 18.554688 3.519531 C 17.847656 2.417969 16.632812 1.703125 15.34375 1.503906 C 13.839844 1.269531 12.515625 1.914062 11.457031 2.96875 C 9.507812 4.914062 9.320312 8.476562 12.21875 9.609375 C 11.785156 10.503906 11.417969 11.417969 11.089844 12.324219 C 9.890625 15.601562 9.308594 19.253906 10.226562 22.679688 C 10.546875 23.878906 11.128906 24.992188 11.933594 25.9375 C 12.714844 26.847656 13.679688 27.578125 14.71875 28.160156 C 15.804688 28.761719 16.96875 29.203125 18.164062 29.542969 C 19.367188 29.886719 20.597656 30.121094 21.835938 30.285156 C 22.28125 30.34375 22.726562 30.394531 23.171875 30.4375 C 23.652344 30.484375 24.121094 30.507812 24.605469 30.511719 C 25.015625 30.515625 25.4375 30.570312 25.851562 30.574219 C 26.757812 30.589844 27.65625 30.5625 28.554688 30.472656 C 30.351562 30.308594 32.128906 29.925781 33.8125 29.285156 C 34.074219 29.183594 34.335938 29.085938 34.59375 28.96875 C 37.632812 27.652344 39.550781 25.238281 40.207031 21.980469 C 40.5625 20.222656 40.523438 18.40625 40.421875 16.621094 C 40.332031 14.988281 40.125 13.355469 39.707031 11.773438 C 39.703125 11.75 39.691406 11.722656 39.683594 11.699219 C 42.390625 10.839844 43.726562 7.777344 42.148438 5.273438 C 41.359375 4.019531 39.953125 3.21875 38.496094 3.023438 Z M 10.40625 6.257812 C 10.398438 4.984375 11.074219 3.855469 11.988281 3.019531 C 12.925781 2.160156 14.027344 1.644531 15.3125 1.847656 C 16.5 2.035156 17.425781 2.742188 18.113281 3.691406 C 17.542969 3.925781 16.992188 4.203125 16.464844 4.523438 C 15.476562 3.714844 13.894531 3.746094 13.019531 4.714844 C 12.175781 5.648438 12.429688 6.902344 13.324219 7.648438 C 12.992188 8.144531 12.695312 8.660156 12.425781 9.195312 C 12.414062 9.191406 12.402344 9.179688 12.386719 9.175781 C 11.167969 8.710938 10.40625 7.578125 10.40625 6.257812 Z M 40.074219 18.757812 C 40.007812 22.589844 38.839844 26.257812 35.285156 28.167969 C 34.648438 28.507812 33.988281 28.808594 33.308594 29.058594 C 31.6875 29.65625 29.980469 29.992188 28.261719 30.132812 C 26.527344 30.277344 24.820312 30.1875 23.097656 29.972656 C 22.671875 29.917969 22.238281 29.863281 21.8125 29.796875 C 20.476562 29.601562 19.148438 29.347656 17.855469 28.96875 C 16.578125 28.597656 15.324219 28.097656 14.195312 27.386719 C 13.097656 26.695312 12.136719 25.789062 11.457031 24.679688 C 9.820312 22.011719 9.871094 18.445312 10.515625 15.492188 C 11.207031 12.3125 12.582031 8.738281 14.84375 6.335938 C 18.738281 2.207031 25.980469 2.105469 30.980469 3.84375 C 34.109375 4.933594 36.988281 6.707031 38.488281 9.765625 C 39.824219 12.496094 40.125 15.757812 40.074219 18.757812 Z M 39.5625 11.269531 C 39.445312 10.882812 39.3125 10.507812 39.160156 10.144531 C 39.164062 10.136719 39.175781 10.136719 39.179688 10.132812 C 40.230469 9.4375 40.523438 8.058594 39.769531 7.023438 C 39.082031 6.078125 37.582031 5.664062 36.632812 6.460938 C 36.140625 6 35.59375 5.585938 34.996094 5.214844 C 35.8125 4.109375 37.046875 3.226562 38.460938 3.410156 C 39.738281 3.578125 40.972656 4.242188 41.722656 5.3125 C 43.25 7.511719 42.21875 10.648438 39.5625 11.269531 Z M 26.289062 16.269531 C 26.324219 17.238281 25.234375 17.507812 24.433594 17.441406 C 24.328125 18.054688 24.140625 18.644531 24.019531 19.25 C 23.886719 19.914062 23.847656 20.59375 23.753906 21.261719 C 23.890625 21.246094 24.042969 21.1875 24.203125 21.078125 C 24.691406 20.742188 25.105469 20.261719 25.503906 19.824219 C 25.613281 19.707031 25.804688 19.890625 25.710938 20.015625 C 25.253906 20.628906 24.46875 21.628906 23.621094 21.671875 C 22.785156 21.710938 22.3125 20.5 21.9375 19.914062 C 21.796875 19.695312 22.179688 19.503906 22.304688 19.738281 C 22.546875 20.222656 22.902344 21.011719 23.429688 21.214844 C 23.5 20.535156 23.65625 19.878906 23.773438 19.203125 C 23.878906 18.59375 23.9375 17.988281 24.121094 17.394531 C 23.484375 17.332031 22.84375 16.890625 22.730469 16.25 C 22.574219 15.347656 23.464844 14.917969 24.222656 14.882812 C 25.078125 14.839844 26.25 15.25 26.289062 16.269531 Z M 17.359375 14.855469 C 16.488281 14.839844 16.132812 13.789062 16.101562 13.0625 C 16.089844 12.71875 16.554688 12.707031 16.5625 13.042969 C 16.570312 13.570312 16.730469 14.613281 17.46875 14.519531 C 18.074219 14.445312 18.386719 13.824219 18.503906 13.289062 C 18.542969 13.113281 18.796875 13.171875 18.75 13.347656 C 18.570312 14.046875 18.214844 14.863281 17.359375 14.855469 Z M 35.011719 14.136719 C 34.890625 14.929688 34.332031 16.09375 33.371094 16.042969 C 32.367188 15.992188 32.265625 14.597656 32.367188 13.851562 C 32.402344 13.589844 32.8125 13.625 32.773438 13.890625 C 32.695312 14.425781 32.636719 15.757812 33.488281 15.660156 C 34.152344 15.585938 34.5625 14.675781 34.675781 14.105469 C 34.722656 13.898438 35.042969 13.921875 35.011719 14.136719 Z M 27.542969 14.375 C 25.375 13.050781 22.003906 13.144531 20.128906 14.957031 C 18.40625 16.617188 17.925781 19.660156 18.195312 21.941406 C 18.375 23.445312 19.042969 24.859375 20.402344 25.609375 C 21.054688 25.96875 21.769531 26.210938 22.5 26.351562 C 22.867188 26.417969 23.246094 26.464844 23.621094 26.480469 C 24.390625 26.511719 25.167969 26.554688 25.921875 26.359375 C 26.527344 26.203125 27.097656 25.910156 27.578125 25.507812 C 28.578125 24.679688 29.191406 23.457031 29.5 22.214844 C 29.539062 22.074219 29.570312 21.933594 29.597656 21.796875 C 30.121094 19.199219 30.046875 15.914062 27.542969 14.375 Z M 29.351562 20.363281 C 29.246094 21.765625 28.976562 23.207031 28.136719 24.371094 C 28.082031 24.445312 28.027344 24.523438 27.96875 24.59375 C 27.042969 25.734375 25.589844 26.195312 24.160156 26.179688 C 23.996094 26.179688 23.832031 26.148438 23.671875 26.128906 C 23.355469 26.09375 23.039062 26.050781 22.722656 25.992188 C 22.125 25.886719 21.527344 25.730469 20.972656 25.476562 C 19.796875 24.9375 19.019531 23.945312 18.699219 22.695312 C 18.191406 20.691406 18.546875 17.949219 19.621094 16.164062 C 20.976562 13.917969 24.019531 13.359375 26.367188 14.199219 C 29.085938 15.171875 29.542969 17.796875 29.351562 20.363281 Z M 29.351562 20.363281 " fill-opacity="1" fill-rule="nonzero"/></g><path fill="#fbc9bc" d="M 17.285156 18.476562 C 17.15625 19.863281 15.699219 20.855469 14.023438 20.699219 C 12.351562 20.542969 11.097656 19.292969 11.230469 17.90625 C 11.363281 16.519531 12.820312 15.527344 14.496094 15.683594 C 16.167969 15.839844 17.414062 17.09375 17.285156 18.476562 Z M 34.96875 18.296875 C 33.296875 18.140625 31.839844 19.136719 31.707031 20.519531 C 31.578125 21.90625 32.824219 23.15625 34.496094 23.3125 C 36.167969 23.46875 37.628906 22.476562 37.761719 21.089844 C 37.890625 19.707031 36.640625 18.453125 34.96875 18.296875 Z M 34.96875 18.296875 " fill-opacity="1" fill-rule="nonzero"/></svg>