<svg xmlns="http://www.w3.org/2000/svg" xmlns:xlink="http://www.w3.org/1999/xlink" width="139" zoomAndPan="magnify" viewBox="0 0 104.25 32.249999" height="43" preserveAspectRatio="xMidYMid meet" version="1.0"><defs><g/><clipPath id="96f04e715e"><path d="M 7 1.269531 L 40 1.269531 L 40 30.589844 L 7 30.589844 Z M 7 1.269531 " clip-rule="nonzero"/></clipPath><clipPath id="ccb4f19872"><path d="M 6.507812 1.269531 L 40.957031 1.269531 L 40.957031 30.589844 L 6.507812 30.589844 Z M 6.507812 1.269531 " clip-rule="nonzero"/></clipPath></defs><g clip-path="url(#96f04e715e)"><path fill="#ffffff" d="M 9.601562 9.1875 C 8.378906 8.710938 7.621094 7.578125 7.621094 6.265625 C 7.613281 4.988281 8.289062 3.863281 9.203125 3.023438 C 10.140625 2.164062 11.242188 1.648438 12.527344 1.851562 C 13.714844 2.039062 14.636719 2.75 15.328125 3.695312 C 14.757812 3.929688 14.207031 4.207031 13.679688 4.527344 C 12.691406 3.71875 11.109375 3.75 10.234375 4.71875 C 9.390625 5.652344 9.644531 6.90625 10.539062 7.652344 C 10.207031 8.152344 9.910156 8.667969 9.640625 9.199219 C 9.625 9.195312 9.617188 9.191406 9.601562 9.1875 Z M 35.703125 9.765625 C 37.039062 12.496094 37.339844 15.753906 37.289062 18.753906 C 37.222656 22.585938 36.054688 26.253906 32.5 28.164062 C 31.863281 28.503906 31.203125 28.804688 30.523438 29.050781 C 28.902344 29.648438 27.195312 29.984375 25.476562 30.128906 C 23.742188 30.273438 22.035156 30.183594 20.3125 29.96875 C 19.886719 29.914062 19.453125 29.855469 19.027344 29.792969 C 17.691406 29.59375 16.363281 29.34375 15.070312 28.964844 C 13.792969 28.59375 12.539062 28.09375 11.410156 27.382812 C 10.3125 26.691406 9.351562 25.785156 8.671875 24.675781 C 7.035156 22.011719 7.085938 18.445312 7.730469 15.492188 C 8.421875 12.3125 9.796875 8.738281 12.058594 6.335938 C 15.953125 2.207031 23.195312 2.105469 28.195312 3.84375 C 31.320312 4.933594 34.203125 6.710938 35.703125 9.765625 Z M 15.964844 13.347656 C 16.011719 13.167969 15.757812 13.105469 15.71875 13.289062 C 15.601562 13.824219 15.296875 14.445312 14.683594 14.519531 C 13.941406 14.613281 13.785156 13.570312 13.777344 13.042969 C 13.769531 12.707031 13.296875 12.71875 13.316406 13.0625 C 13.347656 13.785156 13.703125 14.839844 14.574219 14.855469 C 15.429688 14.863281 15.785156 14.046875 15.964844 13.347656 Z M 24.757812 14.375 C 22.589844 13.050781 19.21875 13.144531 17.34375 14.957031 C 15.621094 16.617188 15.140625 19.660156 15.410156 21.941406 C 15.589844 23.445312 16.257812 24.859375 17.617188 25.609375 C 18.269531 25.96875 18.984375 26.210938 19.714844 26.351562 C 20.082031 26.417969 20.460938 26.464844 20.835938 26.480469 C 21.605469 26.511719 22.382812 26.554688 23.136719 26.359375 C 23.742188 26.203125 24.3125 25.910156 24.792969 25.507812 C 25.792969 24.679688 26.40625 23.457031 26.714844 22.214844 C 26.753906 22.074219 26.785156 21.933594 26.8125 21.796875 C 27.335938 19.199219 27.261719 15.914062 24.757812 14.375 Z M 32.226562 14.136719 C 32.257812 13.921875 31.9375 13.902344 31.894531 14.105469 C 31.78125 14.675781 31.367188 15.585938 30.707031 15.660156 C 29.851562 15.757812 29.917969 14.425781 29.996094 13.890625 C 30.03125 13.625 29.621094 13.589844 29.585938 13.851562 C 29.484375 14.597656 29.585938 15.992188 30.589844 16.042969 C 31.542969 16.089844 32.101562 14.929688 32.226562 14.136719 Z M 26.566406 20.363281 C 26.460938 21.765625 26.191406 23.207031 25.351562 24.371094 C 25.296875 24.445312 25.242188 24.523438 25.183594 24.59375 C 24.257812 25.734375 22.804688 26.195312 21.375 26.179688 C 21.210938 26.179688 21.046875 26.148438 20.886719 26.128906 C 20.570312 26.09375 20.253906 26.050781 19.9375 25.992188 C 19.339844 25.886719 18.742188 25.730469 18.1875 25.476562 C 17.011719 24.9375 16.234375 23.945312 15.914062 22.695312 C 15.40625 20.691406 15.761719 17.949219 16.835938 16.164062 C 18.191406 13.917969 21.234375 13.359375 23.582031 14.199219 C 26.296875 15.171875 26.757812 17.796875 26.566406 20.363281 Z M 23.503906 16.269531 C 23.464844 15.25 22.292969 14.839844 21.4375 14.882812 C 20.679688 14.917969 19.789062 15.347656 19.945312 16.25 C 20.054688 16.890625 20.699219 17.332031 21.335938 17.394531 C 21.15625 17.992188 21.09375 18.59375 20.988281 19.203125 C 20.871094 19.878906 20.714844 20.535156 20.644531 21.214844 C 20.121094 21.011719 19.765625 20.222656 19.519531 19.738281 C 19.398438 19.503906 19.019531 19.695312 19.152344 19.914062 C 19.523438 20.5 19.996094 21.710938 20.835938 21.671875 C 21.683594 21.628906 22.46875 20.628906 22.925781 20.015625 C 23.015625 19.886719 22.828125 19.703125 22.71875 19.824219 C 22.324219 20.261719 21.910156 20.742188 21.417969 21.078125 C 21.257812 21.1875 21.113281 21.242188 20.96875 21.261719 C 21.0625 20.589844 21.101562 19.914062 21.234375 19.25 C 21.355469 18.644531 21.542969 18.054688 21.648438 17.441406 C 22.449219 17.507812 23.539062 17.238281 23.503906 16.269531 Z M 35.671875 3.414062 C 34.257812 3.230469 33.023438 4.113281 32.207031 5.21875 C 32.804688 5.59375 33.351562 6.007812 33.839844 6.464844 C 34.792969 5.675781 36.292969 6.085938 36.980469 7.027344 C 37.734375 8.0625 37.441406 9.4375 36.390625 10.136719 C 36.382812 10.144531 36.375 10.144531 36.371094 10.148438 C 36.523438 10.511719 36.65625 10.882812 36.773438 11.273438 C 39.429688 10.652344 40.460938 7.515625 38.925781 5.320312 C 38.183594 4.25 36.949219 3.582031 35.671875 3.414062 Z M 35.671875 3.414062 " fill-opacity="1" fill-rule="nonzero"/></g><g clip-path="url(#ccb4f19872)"><path fill="#000000" d="M 35.710938 3.023438 C 34.09375 2.8125 32.675781 3.617188 31.777344 4.957031 C 31.679688 4.902344 31.582031 4.847656 31.480469 4.792969 C 28.417969 3.167969 25.027344 2.332031 21.558594 2.472656 C 19.625 2.550781 17.609375 2.835938 15.769531 3.519531 C 15.0625 2.417969 13.847656 1.703125 12.558594 1.503906 C 11.054688 1.269531 9.730469 1.914062 8.671875 2.96875 C 6.722656 4.914062 6.535156 8.476562 9.433594 9.609375 C 9 10.503906 8.632812 11.417969 8.304688 12.324219 C 7.105469 15.601562 6.523438 19.253906 7.441406 22.679688 C 7.761719 23.878906 8.34375 24.992188 9.148438 25.9375 C 9.929688 26.847656 10.894531 27.578125 11.933594 28.160156 C 13.019531 28.761719 14.183594 29.203125 15.378906 29.542969 C 16.582031 29.886719 17.8125 30.121094 19.050781 30.285156 C 19.496094 30.34375 19.941406 30.394531 20.386719 30.4375 C 20.867188 30.484375 21.335938 30.507812 21.816406 30.511719 C 22.230469 30.515625 22.652344 30.570312 23.066406 30.574219 C 23.972656 30.589844 24.871094 30.5625 25.769531 30.472656 C 27.566406 30.308594 29.34375 29.925781 31.027344 29.285156 C 31.289062 29.183594 31.550781 29.085938 31.808594 28.96875 C 34.847656 27.652344 36.765625 25.238281 37.421875 21.980469 C 37.773438 20.222656 37.738281 18.40625 37.636719 16.621094 C 37.546875 14.988281 37.339844 13.355469 36.921875 11.773438 C 36.917969 11.75 36.90625 11.722656 36.898438 11.699219 C 39.605469 10.839844 40.941406 7.777344 39.363281 5.273438 C 38.574219 4.019531 37.167969 3.21875 35.710938 3.023438 Z M 7.621094 6.257812 C 7.613281 4.984375 8.289062 3.855469 9.203125 3.019531 C 10.140625 2.160156 11.242188 1.644531 12.527344 1.847656 C 13.714844 2.035156 14.636719 2.742188 15.328125 3.691406 C 14.757812 3.925781 14.207031 4.203125 13.679688 4.523438 C 12.691406 3.714844 11.109375 3.746094 10.234375 4.714844 C 9.390625 5.648438 9.644531 6.902344 10.539062 7.648438 C 10.207031 8.144531 9.910156 8.660156 9.640625 9.195312 C 9.628906 9.191406 9.617188 9.179688 9.601562 9.175781 C 8.382812 8.710938 7.621094 7.578125 7.621094 6.257812 Z M 37.289062 18.757812 C 37.222656 22.589844 36.054688 26.257812 32.5 28.167969 C 31.863281 28.507812 31.203125 28.808594 30.523438 29.058594 C 28.902344 29.65625 27.195312 29.992188 25.476562 30.132812 C 23.742188 30.277344 22.035156 30.1875 20.3125 29.972656 C 19.886719 29.917969 19.453125 29.863281 19.027344 29.796875 C 17.691406 29.601562 16.363281 29.347656 15.070312 28.96875 C 13.792969 28.597656 12.539062 28.097656 11.410156 27.386719 C 10.3125 26.695312 9.351562 25.789062 8.671875 24.679688 C 7.035156 22.011719 7.085938 18.445312 7.730469 15.492188 C 8.421875 12.3125 9.796875 8.738281 12.058594 6.335938 C 15.953125 2.207031 23.195312 2.105469 28.195312 3.84375 C 31.324219 4.933594 34.203125 6.707031 35.703125 9.765625 C 37.039062 12.496094 37.339844 15.757812 37.289062 18.757812 Z M 36.777344 11.269531 C 36.660156 10.882812 36.527344 10.507812 36.375 10.144531 C 36.378906 10.136719 36.390625 10.136719 36.394531 10.132812 C 37.445312 9.4375 37.738281 8.058594 36.984375 7.023438 C 36.296875 6.078125 34.796875 5.664062 33.847656 6.460938 C 33.355469 6 32.808594 5.585938 32.210938 5.214844 C 33.027344 4.109375 34.261719 3.226562 35.675781 3.410156 C 36.953125 3.578125 38.1875 4.242188 38.9375 5.3125 C 40.464844 7.511719 39.433594 10.648438 36.777344 11.269531 Z M 23.503906 16.269531 C 23.539062 17.238281 22.449219 17.507812 21.648438 17.441406 C 21.542969 18.054688 21.355469 18.644531 21.234375 19.25 C 21.101562 19.914062 21.0625 20.59375 20.96875 21.261719 C 21.105469 21.246094 21.257812 21.1875 21.417969 21.078125 C 21.90625 20.742188 22.320312 20.261719 22.71875 19.824219 C 22.828125 19.707031 23.019531 19.890625 22.925781 20.015625 C 22.46875 20.628906 21.683594 21.628906 20.835938 21.671875 C 20 21.710938 19.527344 20.5 19.152344 19.914062 C 19.011719 19.695312 19.394531 19.503906 19.519531 19.738281 C 19.761719 20.222656 20.113281 21.011719 20.644531 21.214844 C 20.714844 20.535156 20.871094 19.878906 20.988281 19.203125 C 21.09375 18.59375 21.152344 17.988281 21.335938 17.394531 C 20.699219 17.332031 20.058594 16.890625 19.945312 16.25 C 19.789062 15.347656 20.679688 14.917969 21.4375 14.882812 C 22.292969 14.839844 23.464844 15.25 23.503906 16.269531 Z M 14.574219 14.855469 C 13.703125 14.839844 13.347656 13.789062 13.316406 13.0625 C 13.304688 12.71875 13.769531 12.707031 13.777344 13.042969 C 13.785156 13.570312 13.945312 14.613281 14.683594 14.519531 C 15.289062 14.445312 15.601562 13.824219 15.71875 13.289062 C 15.757812 13.113281 16.011719 13.171875 15.964844 13.347656 C 15.785156 14.046875 15.429688 14.863281 14.574219 14.855469 Z M 32.226562 14.136719 C 32.105469 14.929688 31.546875 16.09375 30.585938 16.042969 C 29.582031 15.992188 29.480469 14.597656 29.582031 13.851562 C 29.617188 13.589844 30.027344 13.625 29.988281 13.890625 C 29.910156 14.425781 29.851562 15.757812 30.703125 15.660156 C 31.367188 15.585938 31.777344 14.675781 31.890625 14.105469 C 31.9375 13.898438 32.257812 13.921875 32.226562 14.136719 Z M 24.757812 14.375 C 22.589844 13.050781 19.21875 13.144531 17.34375 14.957031 C 15.621094 16.617188 15.140625 19.660156 15.410156 21.941406 C 15.589844 23.445312 16.257812 24.859375 17.617188 25.609375 C 18.269531 25.96875 18.984375 26.210938 19.714844 26.351562 C 20.082031 26.417969 20.460938 26.464844 20.835938 26.480469 C 21.605469 26.511719 22.382812 26.554688 23.136719 26.359375 C 23.742188 26.203125 24.3125 25.910156 24.792969 25.507812 C 25.792969 24.679688 26.40625 23.457031 26.714844 22.214844 C 26.753906 22.074219 26.785156 21.933594 26.8125 21.796875 C 27.335938 19.199219 27.261719 15.914062 24.757812 14.375 Z M 26.566406 20.363281 C 26.460938 21.765625 26.191406 23.207031 25.351562 24.371094 C 25.296875 24.445312 25.242188 24.523438 25.183594 24.59375 C 24.257812 25.734375 22.804688 26.195312 21.375 26.179688 C 21.210938 26.179688 21.046875 26.148438 20.886719 26.128906 C 20.570312 26.09375 20.253906 26.050781 19.9375 25.992188 C 19.339844 25.886719 18.742188 25.730469 18.1875 25.476562 C 17.011719 24.9375 16.234375 23.945312 15.914062 22.695312 C 15.40625 20.691406 15.761719 17.949219 16.835938 16.164062 C 18.191406 13.917969 21.234375 13.359375 23.582031 14.199219 C 26.296875 15.171875 26.757812 17.796875 26.566406 20.363281 Z M 26.566406 20.363281 " fill-opacity="1" fill-rule="nonzero"/></g><path fill="#fbc9bc" d="M 14.5 18.476562 C 14.371094 19.863281 12.914062 20.855469 11.238281 20.699219 C 9.566406 20.542969 8.3125 19.292969 8.445312 17.90625 C 8.578125 16.519531 10.035156 15.527344 11.710938 15.683594 C 13.378906 15.839844 14.628906 17.09375 14.5 18.476562 Z M 32.183594 18.296875 C 30.511719 18.140625 29.054688 19.136719 28.921875 20.519531 C 28.792969 21.90625 30.039062 23.15625 31.710938 23.3125 C 33.382812 23.46875 34.84375 22.476562 34.976562 21.089844 C 35.105469 19.707031 33.855469 18.453125 32.183594 18.296875 Z M 32.183594 18.296875 " fill-opacity="1" fill-rule="nonzero"/><g fill="#000000" fill-opacity="1"><g transform="translate(45.664376, 19.768049)"><g><path d="M 2.640625 0.09375 C 2.234375 0.09375 1.851562 0.00390625 1.5 -0.171875 C 1.15625 -0.347656 0.875 -0.582031 0.65625 -0.875 C 0.445312 -1.175781 0.34375 -1.492188 0.34375 -1.828125 C 0.34375 -2.253906 0.523438 -2.46875 0.890625 -2.46875 C 1.265625 -2.46875 1.546875 -2.300781 1.734375 -1.96875 C 1.910156 -1.632812 2.226562 -1.46875 2.6875 -1.46875 C 2.882812 -1.46875 3.046875 -1.507812 3.171875 -1.59375 C 3.304688 -1.675781 3.375 -1.773438 3.375 -1.890625 C 3.375 -1.960938 3.347656 -2.050781 3.296875 -2.15625 C 3.253906 -2.257812 3.203125 -2.332031 3.140625 -2.375 C 2.203125 -2.976562 1.515625 -3.585938 1.078125 -4.203125 C 0.648438 -4.828125 0.4375 -5.519531 0.4375 -6.28125 C 0.4375 -7.445312 0.675781 -8.332031 1.15625 -8.9375 C 1.632812 -9.539062 2.234375 -9.84375 2.953125 -9.84375 C 4.523438 -9.84375 5.3125 -8.859375 5.3125 -6.890625 C 5.3125 -6.671875 5.289062 -6.453125 5.25 -6.234375 C 5.21875 -6.015625 5.171875 -5.75 5.109375 -5.4375 C 5.023438 -5.050781 4.773438 -4.859375 4.359375 -4.859375 C 4.085938 -4.859375 3.875 -4.921875 3.71875 -5.046875 C 3.570312 -5.179688 3.507812 -5.378906 3.53125 -5.640625 C 3.550781 -5.835938 3.578125 -6.003906 3.609375 -6.140625 C 3.640625 -6.273438 3.65625 -6.488281 3.65625 -6.78125 C 3.65625 -7.195312 3.59375 -7.5625 3.46875 -7.875 C 3.351562 -8.195312 3.179688 -8.359375 2.953125 -8.359375 C 2.691406 -8.359375 2.484375 -8.1875 2.328125 -7.84375 C 2.171875 -7.5 2.09375 -7.085938 2.09375 -6.609375 C 2.09375 -6.210938 2.164062 -5.84375 2.3125 -5.5 C 2.457031 -5.15625 2.660156 -4.867188 2.921875 -4.640625 C 3.203125 -4.378906 3.472656 -4.15625 3.734375 -3.96875 C 4.003906 -3.789062 4.242188 -3.613281 4.453125 -3.4375 C 4.660156 -3.269531 4.828125 -3.0625 4.953125 -2.8125 C 5.085938 -2.570312 5.15625 -2.242188 5.15625 -1.828125 C 5.15625 -1.253906 4.925781 -0.789062 4.46875 -0.4375 C 4.007812 -0.0820312 3.398438 0.09375 2.640625 0.09375 Z M 2.640625 0.09375 "/></g></g></g><g fill="#000000" fill-opacity="1"><g transform="translate(55.682171, 19.768049)"><g><path d="M 1.46875 0.015625 C 1.175781 0.015625 0.945312 -0.0351562 0.78125 -0.140625 C 0.625 -0.253906 0.546875 -0.507812 0.546875 -0.90625 C 0.546875 -0.90625 0.539062 -1.023438 0.53125 -1.265625 C 0.53125 -1.515625 0.535156 -1.75 0.546875 -1.96875 C 0.546875 -2.300781 0.546875 -2.695312 0.546875 -3.15625 C 0.546875 -3.625 0.546875 -4.117188 0.546875 -4.640625 C 0.554688 -5.160156 0.5625 -5.671875 0.5625 -6.171875 C 0.570312 -6.671875 0.578125 -7.117188 0.578125 -7.515625 C 0.578125 -7.910156 0.578125 -8.210938 0.578125 -8.421875 C 0.578125 -8.773438 0.570312 -9.128906 0.5625 -9.484375 C 0.5625 -9.847656 0.554688 -10.160156 0.546875 -10.421875 C 0.546875 -10.535156 0.539062 -10.675781 0.53125 -10.84375 C 0.53125 -11.019531 0.53125 -11.171875 0.53125 -11.296875 C 0.53125 -11.421875 0.53125 -11.484375 0.53125 -11.484375 C 0.53125 -11.691406 0.582031 -11.867188 0.6875 -12.015625 C 0.800781 -12.171875 1.019531 -12.25 1.34375 -12.25 C 1.632812 -12.25 1.832031 -12.171875 1.9375 -12.015625 C 2.050781 -11.867188 2.109375 -11.6875 2.109375 -11.46875 C 2.109375 -11.351562 2.101562 -11.273438 2.09375 -11.234375 C 2.09375 -11.191406 2.09375 -11.148438 2.09375 -11.109375 C 2.09375 -11.066406 2.085938 -10.984375 2.078125 -10.859375 C 2.078125 -10.742188 2.078125 -10.546875 2.078125 -10.265625 L 2.078125 -9.09375 C 2.078125 -9.09375 2.117188 -9.144531 2.203125 -9.25 C 2.296875 -9.363281 2.445312 -9.472656 2.65625 -9.578125 C 2.875 -9.691406 3.171875 -9.75 3.546875 -9.75 C 4.210938 -9.75 4.738281 -9.539062 5.125 -9.125 C 5.519531 -8.71875 5.800781 -8.046875 5.96875 -7.109375 C 6.132812 -6.171875 6.21875 -4.898438 6.21875 -3.296875 C 6.21875 -2.921875 6.222656 -2.546875 6.234375 -2.171875 C 6.253906 -1.804688 6.269531 -1.421875 6.28125 -1.015625 C 6.289062 -0.648438 6.238281 -0.382812 6.125 -0.21875 C 6.019531 -0.0625 5.820312 0.015625 5.53125 0.015625 C 5.238281 0.015625 5.007812 -0.0351562 4.84375 -0.140625 C 4.675781 -0.253906 4.59375 -0.507812 4.59375 -0.90625 C 4.59375 -1.28125 4.601562 -1.65625 4.625 -2.03125 C 4.644531 -2.414062 4.65625 -2.898438 4.65625 -3.484375 C 4.65625 -4.804688 4.609375 -5.816406 4.515625 -6.515625 C 4.429688 -7.222656 4.304688 -7.707031 4.140625 -7.96875 C 3.984375 -8.226562 3.785156 -8.359375 3.546875 -8.359375 C 3.222656 -8.359375 2.953125 -8.226562 2.734375 -7.96875 C 2.515625 -7.71875 2.351562 -7.238281 2.25 -6.53125 C 2.15625 -5.832031 2.117188 -4.828125 2.140625 -3.515625 C 2.140625 -3.242188 2.140625 -3 2.140625 -2.78125 C 2.148438 -2.570312 2.160156 -2.332031 2.171875 -2.0625 C 2.191406 -1.789062 2.207031 -1.441406 2.21875 -1.015625 C 2.21875 -0.648438 2.164062 -0.382812 2.0625 -0.21875 C 1.957031 -0.0625 1.757812 0.015625 1.46875 0.015625 Z M 1.46875 0.015625 "/></g></g></g><g fill="#000000" fill-opacity="1"><g transform="translate(66.661416, 19.768049)"><g><path d="M 3.28125 0.03125 C 2.6875 0.03125 2.164062 -0.171875 1.71875 -0.578125 C 1.28125 -0.992188 0.941406 -1.578125 0.703125 -2.328125 C 0.460938 -3.085938 0.34375 -3.972656 0.34375 -4.984375 C 0.34375 -5.960938 0.460938 -6.816406 0.703125 -7.546875 C 0.941406 -8.273438 1.28125 -8.835938 1.71875 -9.234375 C 2.164062 -9.640625 2.6875 -9.84375 3.28125 -9.84375 C 3.8125 -9.84375 4.257812 -9.703125 4.625 -9.421875 C 4.988281 -9.140625 5.289062 -8.765625 5.53125 -8.296875 C 5.769531 -7.828125 5.941406 -7.304688 6.046875 -6.734375 C 6.160156 -6.160156 6.21875 -5.578125 6.21875 -4.984375 C 6.21875 -3.984375 6.097656 -3.101562 5.859375 -2.34375 C 5.617188 -1.582031 5.28125 -0.992188 4.84375 -0.578125 C 4.414062 -0.171875 3.894531 0.03125 3.28125 0.03125 Z M 3.28125 -1.421875 C 3.476562 -1.421875 3.671875 -1.578125 3.859375 -1.890625 C 4.046875 -2.210938 4.203125 -2.648438 4.328125 -3.203125 C 4.460938 -3.753906 4.53125 -4.390625 4.53125 -5.109375 C 4.53125 -5.441406 4.5 -5.796875 4.4375 -6.171875 C 4.382812 -6.554688 4.300781 -6.914062 4.1875 -7.25 C 4.070312 -7.582031 3.9375 -7.851562 3.78125 -8.0625 C 3.632812 -8.28125 3.46875 -8.390625 3.28125 -8.390625 C 3.082031 -8.390625 2.882812 -8.25 2.6875 -7.96875 C 2.5 -7.6875 2.34375 -7.296875 2.21875 -6.796875 C 2.101562 -6.304688 2.046875 -5.742188 2.046875 -5.109375 C 2.046875 -4.390625 2.101562 -3.75 2.21875 -3.1875 C 2.34375 -2.632812 2.5 -2.203125 2.6875 -1.890625 C 2.882812 -1.578125 3.082031 -1.421875 3.28125 -1.421875 Z M 3.28125 -1.421875 "/></g></g></g><g fill="#000000" fill-opacity="1"><g transform="translate(77.588213, 19.768049)"><g><path d="M 2.84375 0.109375 C 2 0.109375 1.578125 -0.113281 1.578125 -0.5625 C 1.578125 -0.613281 1.550781 -0.804688 1.5 -1.140625 C 1.457031 -1.472656 1.394531 -1.894531 1.3125 -2.40625 C 1.226562 -2.914062 1.140625 -3.46875 1.046875 -4.0625 C 0.953125 -4.664062 0.859375 -5.265625 0.765625 -5.859375 C 0.671875 -6.453125 0.582031 -7 0.5 -7.5 C 0.425781 -8 0.363281 -8.410156 0.3125 -8.734375 C 0.257812 -9.066406 0.234375 -9.25 0.234375 -9.28125 C 0.203125 -9.445312 0.25 -9.578125 0.375 -9.671875 C 0.507812 -9.765625 0.6875 -9.8125 0.90625 -9.8125 C 1.1875 -9.8125 1.421875 -9.773438 1.609375 -9.703125 C 1.804688 -9.628906 1.945312 -9.476562 2.03125 -9.25 C 2.0625 -9.09375 2.113281 -8.8125 2.1875 -8.40625 C 2.257812 -8 2.316406 -7.582031 2.359375 -7.15625 C 2.453125 -6.21875 2.523438 -5.460938 2.578125 -4.890625 C 2.640625 -4.316406 2.691406 -3.878906 2.734375 -3.578125 C 2.773438 -3.285156 2.816406 -3.085938 2.859375 -2.984375 C 2.898438 -2.878906 2.941406 -2.828125 2.984375 -2.828125 C 3.023438 -2.828125 3.054688 -2.96875 3.078125 -3.25 C 3.109375 -3.53125 3.144531 -3.890625 3.1875 -4.328125 C 3.226562 -4.765625 3.273438 -5.226562 3.328125 -5.71875 C 3.378906 -6.21875 3.441406 -6.679688 3.515625 -7.109375 C 3.585938 -7.546875 3.632812 -7.90625 3.65625 -8.1875 C 3.6875 -8.46875 3.722656 -8.679688 3.765625 -8.828125 C 3.859375 -9.054688 3.972656 -9.207031 4.109375 -9.28125 C 4.242188 -9.363281 4.492188 -9.40625 4.859375 -9.40625 C 5.210938 -9.40625 5.472656 -9.359375 5.640625 -9.265625 C 5.804688 -9.179688 5.921875 -9.039062 5.984375 -8.84375 C 6.015625 -8.695312 6.046875 -8.476562 6.078125 -8.1875 C 6.109375 -7.90625 6.160156 -7.546875 6.234375 -7.109375 C 6.316406 -6.597656 6.382812 -6.085938 6.4375 -5.578125 C 6.488281 -5.078125 6.53125 -4.617188 6.5625 -4.203125 C 6.601562 -3.785156 6.632812 -3.453125 6.65625 -3.203125 C 6.6875 -2.953125 6.71875 -2.828125 6.75 -2.828125 C 6.78125 -2.828125 6.804688 -2.863281 6.828125 -2.9375 C 6.859375 -3.019531 6.894531 -3.195312 6.9375 -3.46875 C 6.976562 -3.738281 7.035156 -4.164062 7.109375 -4.75 C 7.179688 -5.332031 7.28125 -6.132812 7.40625 -7.15625 C 7.46875 -7.59375 7.53125 -8.007812 7.59375 -8.40625 C 7.65625 -8.8125 7.707031 -9.09375 7.75 -9.25 C 7.800781 -9.457031 7.910156 -9.601562 8.078125 -9.6875 C 8.242188 -9.769531 8.488281 -9.8125 8.8125 -9.8125 C 9.039062 -9.8125 9.222656 -9.765625 9.359375 -9.671875 C 9.492188 -9.578125 9.550781 -9.453125 9.53125 -9.296875 C 9.507812 -9.234375 9.46875 -9.019531 9.40625 -8.65625 C 9.34375 -8.300781 9.269531 -7.867188 9.1875 -7.359375 C 9.101562 -6.847656 9.015625 -6.304688 8.921875 -5.734375 C 8.835938 -5.160156 8.75 -4.609375 8.65625 -4.078125 C 8.570312 -3.554688 8.5 -3.101562 8.4375 -2.71875 C 8.382812 -2.34375 8.347656 -2.09375 8.328125 -1.96875 C 8.296875 -1.8125 8.257812 -1.585938 8.21875 -1.296875 C 8.1875 -1.003906 8.171875 -0.757812 8.171875 -0.5625 C 8.171875 -0.34375 8.054688 -0.175781 7.828125 -0.0625 C 7.609375 0.0507812 7.296875 0.109375 6.890625 0.109375 C 6.515625 0.109375 6.207031 0.046875 5.96875 -0.078125 C 5.738281 -0.203125 5.625 -0.363281 5.625 -0.5625 C 5.625 -0.757812 5.601562 -1.003906 5.5625 -1.296875 C 5.519531 -1.585938 5.488281 -1.8125 5.46875 -1.96875 C 5.332031 -3 5.222656 -3.8125 5.140625 -4.40625 C 5.066406 -5 5.015625 -5.421875 4.984375 -5.671875 C 4.953125 -5.929688 4.921875 -6.0625 4.890625 -6.0625 C 4.847656 -6.0625 4.785156 -5.734375 4.703125 -5.078125 C 4.628906 -4.429688 4.492188 -3.394531 4.296875 -1.96875 C 4.265625 -1.8125 4.222656 -1.585938 4.171875 -1.296875 C 4.128906 -1.003906 4.109375 -0.757812 4.109375 -0.5625 C 4.109375 -0.113281 3.6875 0.109375 2.84375 0.109375 Z M 2.84375 0.109375 "/></g></g></g></svg>