<svg xmlns="http://www.w3.org/2000/svg" xmlns:xlink="http://www.w3.org/1999/xlink" width="139" zoomAndPan="magnify" viewBox="0 0 104.25 32.249999" height="43" preserveAspectRatio="xMidYMid meet" version="1.0"><defs><g/><clipPath id="cfaf5214ae"><path d="M 7.710938 3.152344 L 20.902344 3.152344 L 20.902344 28.070312 L 7.710938 28.070312 Z M 7.710938 3.152344 " clip-rule="nonzero"/></clipPath></defs><g clip-path="url(#cfaf5214ae)"><path fill="#000000" d="M 20.800781 20.539062 C 20.664062 19.433594 20.304688 18.398438 19.792969 17.410156 C 19.722656 17.277344 19.652344 17.148438 19.578125 17.011719 C 19.644531 16.9375 19.703125 16.867188 19.765625 16.804688 C 19.929688 16.632812 19.992188 16.421875 19.984375 16.195312 C 19.953125 15.5625 19.808594 14.960938 19.460938 14.421875 C 19.429688 14.375 19.40625 14.328125 19.410156 14.269531 C 19.414062 14.027344 19.398438 13.785156 19.386719 13.542969 C 19.347656 12.753906 19.203125 11.988281 18.9375 11.242188 C 18.910156 11.171875 18.867188 11.101562 18.878906 11.003906 C 18.933594 10.980469 18.996094 10.953125 19.050781 10.925781 C 19.5625 10.652344 19.878906 10.234375 19.921875 9.664062 C 19.972656 9.035156 19.691406 8.546875 19.160156 8.214844 C 18.628906 7.886719 18.070312 7.851562 17.523438 8.164062 C 17.34375 8.261719 17.289062 8.300781 17.109375 8.214844 C 17.046875 8.191406 16.972656 8.164062 16.964844 8.160156 C 16.917969 8.140625 16.898438 8.09375 16.894531 8.011719 C 16.878906 7.71875 16.792969 7.445312 16.675781 7.183594 C 16.398438 6.570312 15.992188 6.046875 15.535156 5.554688 C 15.492188 5.511719 15.429688 5.480469 15.425781 5.402344 C 15.601562 5.375 15.777344 5.382812 15.941406 5.332031 C 16.097656 5.285156 16.140625 5.191406 16.074219 5.042969 C 16.0625 5.019531 16.035156 4.996094 16.054688 4.953125 C 16.132812 4.925781 16.21875 4.890625 16.300781 4.859375 C 16.394531 4.820312 16.480469 4.765625 16.488281 4.65625 C 16.492188 4.542969 16.40625 4.476562 16.316406 4.425781 C 16.234375 4.382812 16.148438 4.347656 16.050781 4.300781 C 16.164062 4.214844 16.265625 4.148438 16.359375 4.074219 C 16.433594 4.015625 16.492188 3.941406 16.457031 3.839844 C 16.429688 3.753906 16.34375 3.738281 16.261719 3.71875 C 16.144531 3.691406 16.023438 3.6875 15.902344 3.691406 C 15.808594 3.691406 15.71875 3.691406 15.609375 3.691406 C 15.65625 3.621094 15.695312 3.574219 15.726562 3.523438 C 15.773438 3.4375 15.832031 3.351562 15.78125 3.253906 C 15.722656 3.152344 15.617188 3.171875 15.519531 3.175781 C 15.476562 3.179688 15.429688 3.1875 15.386719 3.195312 C 15.128906 3.246094 14.929688 3.394531 14.757812 3.578125 C 14.722656 3.570312 14.710938 3.546875 14.699219 3.527344 C 14.644531 3.441406 14.601562 3.332031 14.476562 3.347656 C 14.355469 3.363281 14.320312 3.476562 14.273438 3.570312 C 14.214844 3.703125 14.199219 3.847656 14.183594 3.992188 C 13.9375 3.9375 13.851562 4.007812 13.832031 4.261719 C 13.8125 4.488281 13.863281 4.691406 13.988281 4.878906 C 14.03125 4.941406 14.070312 5 14.117188 5.0625 C 14.09375 5.082031 14.082031 5.097656 14.066406 5.105469 C 13.726562 5.324219 13.410156 5.5625 13.117188 5.835938 C 12.539062 6.382812 12.066406 6.992188 11.914062 7.796875 C 11.902344 7.84375 11.882812 7.882812 11.835938 7.902344 C 11.640625 7.988281 11.464844 8.105469 11.308594 8.265625 C 10.917969 7.988281 10.492188 7.90625 10.035156 8.011719 C 9.582031 8.113281 9.21875 8.351562 8.957031 8.734375 C 8.742188 9.050781 8.675781 9.40625 8.734375 9.773438 C 8.839844 10.410156 9.265625 10.789062 9.832031 11.035156 C 9.816406 11.082031 9.808594 11.109375 9.796875 11.136719 C 9.597656 11.628906 9.453125 12.132812 9.355469 12.65625 C 9.261719 13.15625 9.234375 13.664062 9.226562 14.171875 C 9.226562 14.261719 9.222656 14.34375 9.152344 14.421875 C 8.871094 14.738281 8.695312 15.109375 8.609375 15.519531 C 8.496094 16.078125 8.453125 16.625 8.9375 17.058594 C 8.9375 17.0625 8.9375 17.066406 8.945312 17.09375 C 8.8125 17.335938 8.675781 17.59375 8.558594 17.859375 C 8.046875 19.007812 7.714844 20.195312 7.753906 21.464844 C 7.765625 21.886719 7.855469 22.292969 8.066406 22.664062 C 8.101562 22.734375 8.121094 22.800781 8.125 22.878906 C 8.199219 24.007812 8.425781 25.097656 8.878906 26.140625 C 9.109375 26.671875 9.371094 27.1875 9.769531 27.621094 C 9.960938 27.828125 10.195312 27.957031 10.480469 27.996094 C 10.8125 28.039062 11.148438 28.035156 11.480469 28.019531 C 12.285156 27.988281 12.820312 27.582031 13.066406 26.824219 C 13.078125 26.78125 13.082031 26.734375 13.132812 26.691406 C 13.933594 26.914062 14.746094 26.914062 15.5625 26.691406 C 15.589844 26.769531 15.609375 26.832031 15.628906 26.894531 C 15.828125 27.453125 16.1875 27.855469 16.789062 27.976562 C 17.273438 28.070312 17.765625 28.054688 18.253906 27.976562 C 18.625 27.914062 18.871094 27.664062 19.070312 27.371094 C 19.917969 26.109375 20.335938 24.707031 20.480469 23.210938 C 20.503906 22.933594 20.527344 22.664062 20.644531 22.398438 C 20.898438 21.800781 20.882812 21.167969 20.800781 20.539062 Z M 19.277344 14.714844 C 19.445312 14.992188 19.539062 15.277344 19.609375 15.574219 C 19.660156 15.796875 19.675781 16.023438 19.675781 16.25 C 19.671875 16.40625 19.605469 16.527344 19.480469 16.652344 C 19.410156 16.320312 19.335938 15.550781 19.066406 14.929688 C 19.140625 14.859375 19.210938 14.789062 19.277344 14.714844 Z M 17.007812 16.054688 C 17.222656 15.976562 17.429688 15.902344 17.648438 15.820312 C 17.730469 16.027344 17.742188 16.242188 17.777344 16.453125 C 17.839844 16.84375 17.871094 17.242188 17.875 17.636719 C 17.878906 17.738281 17.871094 17.761719 17.871094 17.761719 C 17.683594 17.851562 17.398438 17.96875 17.171875 18.027344 C 17.199219 17.351562 17.125 16.703125 17.007812 16.054688 Z M 16.265625 16.234375 C 16.492188 16.179688 16.703125 16.128906 16.925781 16.078125 C 17.027344 16.703125 17.097656 17.308594 17.085938 17.917969 C 17.085938 18.027344 17.082031 18.050781 17.082031 18.050781 C 16.882812 18.117188 16.5625 18.222656 16.339844 18.253906 C 16.371094 17.574219 16.375 16.902344 16.265625 16.234375 Z M 15.460938 16.355469 C 15.695312 16.320312 15.921875 16.285156 16.175781 16.25 C 16.277344 16.917969 16.292969 17.585938 16.234375 18.269531 C 15.980469 18.339844 15.738281 18.367188 15.464844 18.398438 C 15.53125 17.714844 15.527344 17.042969 15.460938 16.355469 Z M 17.734375 15.785156 C 17.949219 15.6875 18.125 15.597656 18.324219 15.476562 C 18.402344 15.742188 18.609375 16.695312 18.636719 17.125 C 18.644531 17.226562 18.65625 17.335938 18.65625 17.335938 C 18.484375 17.457031 18.1875 17.652344 17.960938 17.726562 C 17.964844 17.0625 17.886719 16.425781 17.734375 15.785156 Z M 18.390625 15.4375 C 18.609375 15.304688 18.816406 15.15625 19.011719 14.980469 C 19.035156 15.085938 19.117188 15.265625 19.226562 15.753906 C 19.289062 16.046875 19.34375 16.351562 19.382812 16.652344 C 19.390625 16.703125 19.394531 16.726562 19.394531 16.726562 C 19.21875 16.929688 18.984375 17.132812 18.746094 17.292969 C 18.703125 16.765625 18.554688 15.957031 18.390625 15.4375 Z M 18.984375 8.453125 C 19.410156 8.691406 19.6875 9.203125 19.632812 9.636719 C 19.570312 10.148438 19.207031 10.597656 18.734375 10.734375 C 18.609375 10.480469 18.480469 10.238281 18.328125 9.992188 C 18.5 9.921875 18.636719 9.828125 18.679688 9.65625 C 18.707031 9.542969 18.699219 9.429688 18.632812 9.320312 C 18.496094 9.101562 18.257812 9.0625 17.933594 9.222656 C 17.882812 8.941406 17.78125 8.6875 17.558594 8.476562 C 18.046875 8.183594 18.515625 8.191406 18.984375 8.453125 Z M 17.367188 8.742188 C 17.585938 8.953125 17.652344 9.214844 17.632812 9.519531 C 17.535156 9.53125 17.453125 9.515625 17.367188 9.496094 C 17.375 9.230469 17.382812 8.996094 17.367188 8.742188 Z M 17.128906 8.550781 C 17.195312 8.582031 17.246094 8.621094 17.261719 8.699219 C 17.285156 8.839844 17.316406 9.199219 17.289062 9.476562 C 17.078125 9.429688 16.882812 9.386719 16.679688 9.34375 C 16.664062 9.046875 16.664062 8.761719 16.550781 8.488281 C 16.535156 8.761719 16.59375 9.03125 16.566406 9.320312 C 16.347656 9.289062 16.136719 9.257812 15.925781 9.230469 C 15.90625 8.902344 15.914062 8.609375 15.804688 8.316406 C 15.78125 8.609375 15.835938 8.902344 15.804688 9.210938 C 15.585938 9.191406 15.371094 9.167969 15.144531 9.144531 C 15.140625 8.796875 15.183594 8.394531 15.058594 8.035156 L 15.058594 9.136719 C 14.785156 9.132812 14.566406 9.105469 14.320312 9.09375 C 14.347656 8.789062 14.378906 8.433594 14.359375 8.109375 C 14.246094 8.421875 14.265625 8.753906 14.21875 9.097656 C 13.746094 9.089844 13.273438 9.113281 12.804688 9.148438 C 12.820312 8.835938 12.894531 8.226562 13.03125 7.976562 C 13.410156 7.933594 13.792969 7.921875 14.175781 7.941406 C 14.90625 7.980469 15.625 8.074219 16.332031 8.261719 C 16.605469 8.339844 16.875 8.425781 17.128906 8.550781 Z M 12.699219 9.152344 C 12.46875 9.1875 12.285156 9.199219 12.054688 9.246094 C 12.078125 8.824219 12.1875 8.441406 12.371094 8.066406 C 12.554688 8.035156 12.71875 8 12.925781 7.984375 C 12.800781 8.359375 12.71875 8.757812 12.699219 9.152344 Z M 14.097656 4.292969 C 14.265625 4.332031 14.320312 4.503906 14.476562 4.546875 C 14.585938 4.5 14.554688 4.425781 14.523438 4.355469 C 14.433594 4.160156 14.441406 3.960938 14.492188 3.738281 C 14.613281 3.835938 14.59375 4.003906 14.75 4.078125 C 14.929688 3.832031 15.09375 3.546875 15.460938 3.453125 C 15.371094 3.613281 15.269531 3.714844 15.179688 3.832031 C 15.144531 3.882812 15.085938 3.933594 15.136719 4.003906 C 15.183594 4.066406 15.246094 4.0625 15.316406 4.050781 C 15.523438 4.015625 15.734375 3.988281 15.945312 3.957031 C 15.976562 3.953125 16.015625 3.9375 16.046875 3.980469 C 15.898438 4.152344 15.613281 4.175781 15.519531 4.433594 C 15.726562 4.515625 15.933594 4.519531 16.128906 4.613281 C 16.023438 4.695312 15.914062 4.683594 15.808594 4.695312 C 15.738281 4.707031 15.667969 4.707031 15.597656 4.710938 C 15.539062 4.71875 15.46875 4.699219 15.441406 4.777344 C 15.417969 4.863281 15.488281 4.890625 15.542969 4.925781 C 15.605469 4.972656 15.6875 4.992188 15.746094 5.082031 C 15.46875 5.144531 15.21875 5.125 14.960938 5.066406 C 14.746094 4.957031 14.609375 4.839844 14.5 4.808594 C 14.46875 4.835938 14.425781 4.863281 14.382812 4.894531 C 14.175781 4.734375 14.101562 4.5625 14.097656 4.292969 Z M 12.445312 7.164062 C 12.851562 6.414062 13.476562 5.875 14.171875 5.394531 C 14.539062 5.136719 14.707031 5.214844 14.972656 5.453125 C 15.652344 6.0625 16.222656 6.753906 16.519531 7.636719 C 16.554688 7.75 16.585938 7.867188 16.59375 8.019531 C 15.144531 7.652344 13.703125 7.511719 12.222656 7.777344 C 12.261719 7.542969 12.34375 7.351562 12.445312 7.164062 Z M 11.566406 8.4375 C 11.507812 8.699219 11.386719 8.949219 11.40625 9.265625 C 11.464844 9.125 11.484375 9.082031 11.496094 9.011719 C 11.527344 8.847656 11.582031 8.695312 11.628906 8.535156 C 11.695312 8.3125 11.847656 8.195312 12.0625 8.140625 C 12.121094 8.125 12.179688 8.109375 12.269531 8.085938 C 12.085938 8.46875 12.007812 8.859375 11.957031 9.261719 C 11.683594 9.300781 11.429688 9.386719 11.144531 9.40625 C 11.128906 9 11.285156 8.691406 11.566406 8.4375 Z M 9.023438 9.726562 C 8.933594 9.222656 9.203125 8.726562 9.714844 8.445312 C 10.179688 8.191406 10.753906 8.207031 11.089844 8.496094 C 10.945312 8.726562 10.867188 8.988281 10.824219 9.261719 C 10.441406 9.070312 10.164062 9.121094 10.027344 9.398438 C 9.902344 9.660156 10.019531 9.90625 10.355469 10.050781 C 10.222656 10.289062 10.097656 10.511719 9.972656 10.734375 C 9.527344 10.652344 9.109375 10.203125 9.023438 9.726562 Z M 10.699219 10.082031 C 10.789062 9.949219 10.882812 9.816406 11.003906 9.703125 C 11.316406 9.738281 11.59375 9.628906 11.882812 9.582031 C 12.890625 9.410156 13.902344 9.371094 14.921875 9.4375 C 15.773438 9.488281 16.609375 9.628906 17.4375 9.816406 C 17.5625 9.84375 17.6875 9.84375 17.820312 9.804688 C 17.960938 9.964844 18.074219 10.140625 18.179688 10.324219 C 18.648438 11.132812 18.914062 12.007812 19.035156 12.929688 C 19.09375 13.371094 19.140625 13.816406 19.101562 14.265625 C 19.085938 14.449219 19 14.585938 18.867188 14.707031 C 18.351562 15.1875 17.734375 15.496094 17.066406 15.710938 C 15.933594 16.074219 14.769531 16.148438 13.589844 16.054688 C 12.664062 15.980469 11.769531 15.785156 10.921875 15.410156 C 10.484375 15.21875 10.078125 14.972656 9.722656 14.65625 C 9.59375 14.539062 9.523438 14.421875 9.523438 14.238281 C 9.503906 12.738281 9.863281 11.34375 10.699219 10.082031 Z M 15.375 18.414062 C 15.152344 18.453125 14.925781 18.449219 14.660156 18.457031 C 14.621094 17.753906 14.632812 17.089844 14.703125 16.398438 C 14.925781 16.390625 15.136719 16.351562 15.367188 16.371094 C 15.433594 17.046875 15.433594 17.734375 15.375 18.414062 Z M 14.570312 18.449219 C 14.3125 18.449219 14.078125 18.449219 13.808594 18.449219 C 13.761719 17.75 13.78125 17.074219 13.945312 16.402344 C 14.167969 16.402344 14.378906 16.402344 14.609375 16.402344 C 14.550781 17.085938 14.53125 17.761719 14.570312 18.449219 Z M 13.714844 18.445312 C 13.460938 18.445312 13.25 18.410156 13.007812 18.386719 C 12.945312 17.6875 13 17.011719 13.199219 16.328125 C 13.417969 16.347656 13.625 16.367188 13.855469 16.382812 C 13.703125 17.066406 13.636719 17.757812 13.714844 18.445312 Z M 12.90625 18.367188 C 12.65625 18.339844 12.429688 18.296875 12.1875 18.234375 C 12.144531 17.550781 12.1875 16.878906 12.441406 16.207031 C 12.65625 16.242188 12.871094 16.277344 13.109375 16.3125 C 12.910156 16.988281 12.863281 17.667969 12.90625 18.367188 Z M 12.085938 18.207031 C 11.832031 18.171875 11.617188 18.101562 11.375 18.019531 C 11.359375 17.335938 11.410156 16.671875 11.714844 16.027344 C 11.925781 16.082031 12.128906 16.128906 12.351562 16.1875 C 12.113281 16.851562 12.050781 17.515625 12.085938 18.207031 Z M 11.285156 17.984375 C 11.039062 17.929688 10.785156 17.816406 10.578125 17.722656 C 10.578125 17.722656 10.578125 17.679688 10.578125 17.640625 C 10.582031 17.023438 10.640625 16.414062 10.929688 15.855469 C 10.941406 15.832031 10.960938 15.8125 10.984375 15.78125 C 11.199219 15.855469 11.402344 15.925781 11.625 16.003906 C 11.335938 16.632812 11.265625 17.289062 11.285156 17.984375 Z M 10.492188 17.6875 C 10.257812 17.597656 10.027344 17.464844 9.835938 17.347656 C 9.835938 17.347656 9.835938 17.265625 9.835938 17.230469 C 9.828125 16.644531 9.914062 16.128906 10.207031 15.609375 C 10.234375 15.554688 10.257812 15.515625 10.308594 15.457031 C 10.484375 15.542969 10.691406 15.636719 10.890625 15.738281 C 10.570312 16.34375 10.480469 16.992188 10.492188 17.6875 Z M 9.757812 17.300781 C 9.535156 17.167969 9.335938 16.992188 9.167969 16.847656 C 9.167969 16.847656 9.167969 16.828125 9.167969 16.796875 C 9.183594 16.207031 9.289062 15.640625 9.628906 15.140625 C 9.640625 15.117188 9.671875 15.070312 9.695312 15.058594 C 9.859375 15.167969 10.046875 15.285156 10.226562 15.402344 C 9.847656 15.976562 9.746094 16.609375 9.757812 17.300781 Z M 8.863281 16.414062 C 8.800781 16.136719 8.839844 15.863281 8.898438 15.59375 C 8.972656 15.269531 9.089844 14.960938 9.3125 14.683594 C 9.414062 14.796875 9.511719 14.882812 9.617188 15 C 9.253906 15.484375 9.105469 16.089844 9.082031 16.753906 C 8.953125 16.648438 8.890625 16.542969 8.863281 16.414062 Z M 20.367188 22.296875 C 20.277344 22.519531 20.160156 22.730469 19.949219 22.875 C 19.882812 22.792969 19.917969 22.699219 19.878906 22.621094 C 19.855469 22.574219 19.828125 22.53125 19.773438 22.527344 C 19.71875 22.527344 19.695312 22.570312 19.675781 22.613281 C 19.636719 22.691406 19.613281 22.769531 19.605469 22.859375 C 19.601562 22.917969 19.609375 22.992188 19.523438 23.019531 C 19.449219 22.984375 19.464844 22.90625 19.449219 22.847656 C 19.429688 22.78125 19.417969 22.710938 19.394531 22.644531 C 19.378906 22.589844 19.355469 22.523438 19.277344 22.527344 C 19.207031 22.535156 19.179688 22.597656 19.164062 22.65625 C 19.140625 22.726562 19.132812 22.800781 19.113281 22.886719 C 18.996094 22.851562 18.949219 22.753906 18.898438 22.667969 C 18.6875 22.292969 18.554688 21.886719 18.445312 21.472656 C 18.355469 21.144531 18.28125 20.808594 18.195312 20.480469 C 18.175781 20.390625 18.152344 20.304688 18.09375 20.230469 C 18.066406 20.195312 18.015625 20.1875 17.984375 20.214844 C 17.941406 20.25 17.941406 20.3125 17.9375 20.371094 C 17.929688 20.742188 18.03125 21.097656 18.121094 21.449219 C 18.222656 21.855469 18.347656 22.253906 18.53125 22.632812 C 18.847656 23.273438 19.445312 23.46875 20.09375 23.144531 C 20.113281 23.132812 20.1875 23.082031 20.222656 23.066406 C 20.195312 23.191406 20.171875 23.332031 20.15625 23.433594 C 19.988281 24.777344 19.597656 26.046875 18.835938 27.183594 C 18.71875 27.355469 18.582031 27.507812 18.402344 27.617188 C 18.226562 27.359375 18.089844 27.339844 17.910156 27.550781 C 17.855469 27.378906 17.773438 27.246094 17.566406 27.253906 C 17.40625 27.261719 17.332031 27.351562 17.28125 27.507812 C 17.203125 27.355469 17.09375 27.285156 16.933594 27.324219 C 16.777344 27.363281 16.746094 27.492188 16.746094 27.628906 C 16.363281 27.597656 15.941406 27.097656 15.871094 26.59375 C 16.492188 26.347656 17.054688 26.019531 17.371094 25.386719 C 15.34375 26.96875 13.335938 26.976562 11.328125 25.351562 C 11.433594 25.679688 11.667969 25.902344 11.933594 26.101562 C 12.195312 26.304688 12.492188 26.445312 12.789062 26.574219 C 12.804688 26.992188 12.328125 27.585938 11.929688 27.632812 C 11.90625 27.476562 11.867188 27.324219 11.660156 27.3125 C 11.523438 27.308594 11.425781 27.359375 11.386719 27.535156 C 11.316406 27.34375 11.222656 27.226562 11.023438 27.257812 C 10.871094 27.28125 10.789062 27.378906 10.75 27.539062 C 10.671875 27.453125 10.59375 27.386719 10.472656 27.40625 C 10.355469 27.425781 10.3125 27.515625 10.269531 27.625 C 10.152344 27.566406 10.070312 27.492188 9.988281 27.410156 C 9.6875 27.089844 9.480469 26.710938 9.296875 26.316406 C 8.839844 25.359375 8.566406 24.347656 8.46875 23.292969 C 8.464844 23.269531 8.453125 23.121094 8.449219 23.097656 C 8.503906 23.136719 8.542969 23.160156 8.578125 23.175781 C 9.042969 23.386719 9.785156 23.347656 10.089844 22.652344 C 10.394531 21.957031 10.625 21.242188 10.691406 20.484375 C 10.699219 20.40625 10.722656 20.3125 10.667969 20.238281 C 10.640625 20.195312 10.585938 20.191406 10.550781 20.226562 C 10.496094 20.277344 10.484375 20.351562 10.464844 20.417969 C 10.351562 20.816406 10.28125 21.222656 10.160156 21.617188 C 10.050781 21.960938 9.933594 22.304688 9.757812 22.625 C 9.699219 22.726562 9.644531 22.835938 9.519531 22.882812 C 9.472656 22.769531 9.511719 22.621094 9.394531 22.535156 C 9.367188 22.515625 9.332031 22.519531 9.308594 22.539062 C 9.160156 22.65625 9.21875 22.886719 9.097656 23.03125 C 9.03125 22.964844 9.03125 22.894531 9.015625 22.835938 C 8.996094 22.761719 8.976562 22.6875 8.949219 22.621094 C 8.933594 22.578125 8.90625 22.535156 8.851562 22.535156 C 8.789062 22.535156 8.765625 22.582031 8.742188 22.625 C 8.699219 22.707031 8.707031 22.800781 8.679688 22.894531 C 8.527344 22.816406 8.445312 22.691406 8.363281 22.566406 C 8.125 22.191406 8.058594 21.773438 8.046875 21.339844 C 8.03125 20.457031 8.222656 19.613281 8.507812 18.785156 C 8.667969 18.324219 8.867188 17.878906 9.09375 17.445312 C 9.121094 17.394531 9.140625 17.332031 9.199219 17.296875 C 9.339844 17.390625 9.480469 17.488281 9.625 17.578125 C 10.535156 18.132812 11.535156 18.445312 12.578125 18.625 C 13.375 18.761719 14.179688 18.800781 14.984375 18.746094 C 16.316406 18.648438 17.589844 18.351562 18.75 17.660156 C 18.953125 17.539062 19.144531 17.394531 19.324219 17.238281 C 19.398438 17.277344 19.417969 17.347656 19.449219 17.410156 C 19.945312 18.34375 20.320312 19.320312 20.476562 20.371094 C 20.570312 21.023438 20.613281 21.671875 20.367188 22.296875 Z M 13.175781 13.699219 C 13.011719 13.390625 13.148438 13.027344 13.472656 12.875 C 13.601562 12.816406 13.738281 12.785156 13.878906 12.769531 C 14.222656 12.734375 14.566406 12.726562 14.90625 12.8125 C 15.425781 12.949219 15.589844 13.414062 15.269531 13.839844 C 15.054688 14.121094 14.777344 14.300781 14.398438 14.347656 C 14.398438 14.464844 14.394531 14.5625 14.402344 14.664062 C 14.410156 14.785156 14.488281 14.851562 14.609375 14.867188 C 14.726562 14.882812 14.765625 14.808594 14.792969 14.710938 C 14.8125 14.648438 14.820312 14.558594 14.921875 14.585938 C 15.019531 14.613281 15.011719 14.703125 15.003906 14.777344 C 14.96875 15.042969 14.652344 15.175781 14.402344 15.035156 C 14.367188 15.011719 14.335938 14.984375 14.296875 14.957031 C 14.15625 15.050781 14.007812 15.132812 13.824219 15.070312 C 13.679688 15.019531 13.574219 14.894531 13.574219 14.746094 C 13.570312 14.648438 13.605469 14.574219 13.726562 14.601562 C 13.769531 14.636719 13.78125 14.683594 13.792969 14.734375 C 13.816406 14.828125 13.867188 14.886719 13.976562 14.867188 C 14.078125 14.851562 14.136719 14.792969 14.140625 14.6875 C 14.144531 14.582031 14.140625 14.476562 14.140625 14.355469 C 14.066406 14.339844 14 14.328125 13.933594 14.308594 C 13.59375 14.214844 13.335938 14.007812 13.175781 13.699219 Z M 11.429688 12.664062 C 11.425781 12.632812 11.421875 12.605469 11.421875 12.589844 C 11.425781 12.378906 11.515625 12.238281 11.632812 12.242188 C 11.746094 12.25 11.84375 12.410156 11.839844 12.585938 C 11.835938 12.621094 11.828125 12.65625 11.820312 12.691406 C 11.789062 12.804688 11.75 12.90625 11.605469 12.890625 C 11.472656 12.875 11.445312 12.773438 11.429688 12.664062 Z M 16.910156 12.25 C 17.023438 12.246094 17.117188 12.371094 17.128906 12.550781 C 17.132812 12.5625 17.132812 12.578125 17.128906 12.59375 C 17.125 12.769531 17.035156 12.890625 16.914062 12.894531 C 16.789062 12.894531 16.714844 12.789062 16.710938 12.59375 C 16.710938 12.582031 16.710938 12.566406 16.710938 12.550781 C 16.722656 12.371094 16.800781 12.257812 16.910156 12.25 Z M 11.632812 11.515625 C 11.609375 11.351562 11.695312 11.25 11.886719 11.21875 C 11.914062 11.398438 11.8125 11.511719 11.632812 11.515625 Z M 16.707031 11.222656 C 16.871094 11.242188 16.9375 11.308594 16.984375 11.492188 C 16.890625 11.515625 16.835938 11.492188 16.785156 11.449219 C 16.714844 11.390625 16.679688 11.347656 16.707031 11.222656 Z M 13.886719 5.84375 C 13.585938 6.265625 13.417969 6.75 13.277344 7.242188 C 13.332031 6.710938 13.496094 6.230469 13.886719 5.84375 Z M 15.386719 6.808594 C 15.382812 6.546875 15.335938 6.292969 15.332031 6.035156 C 15.507812 6.546875 15.5 7.058594 15.363281 7.574219 C 15.34375 7.316406 15.390625 7.066406 15.386719 6.808594 Z M 14.652344 7.332031 C 14.695312 6.851562 14.796875 6.378906 14.851562 5.898438 C 14.898438 6.390625 14.789062 6.863281 14.652344 7.332031 Z M 14.335938 5.878906 C 14.195312 6.328125 14.074219 6.785156 13.960938 7.238281 C 13.980469 6.757812 14.109375 6.304688 14.335938 5.878906 Z M 12.609375 7.402344 C 12.605469 7.171875 12.671875 6.960938 12.792969 6.765625 C 12.738281 6.980469 12.683594 7.195312 12.609375 7.402344 Z M 16.007812 7.773438 C 15.988281 7.542969 16.042969 7.320312 16.046875 7.09375 C 16.078125 7.320312 16.082031 7.550781 16.007812 7.773438 Z M 13.667969 8.042969 C 13.621094 8.347656 13.535156 8.746094 13.484375 9.050781 C 13.484375 9.050781 13.480469 8.875 13.480469 8.820312 C 13.5 8.277344 13.652344 8.039062 13.667969 8.042969 Z M 13.667969 8.042969 " fill-opacity="1" fill-rule="nonzero"/></g><g fill="#000000" fill-opacity="1"><g transform="translate(29.159003, 18.323862)"><g><path d="M 1.453125 0.296875 C 1.328125 0.304688 1.222656 0.269531 1.140625 0.1875 C 1.054688 0.113281 1.015625 0.0195312 1.015625 -0.09375 C 1.015625 -0.1875 1.015625 -0.273438 1.015625 -0.359375 C 1.023438 -0.441406 1.03125 -0.519531 1.03125 -0.59375 C 1.039062 -0.851562 1.050781 -1.109375 1.0625 -1.359375 C 1.070312 -1.609375 1.082031 -1.859375 1.09375 -2.109375 C 1.125 -2.597656 1.164062 -3.070312 1.21875 -3.53125 L 1.25 -3.9375 C 1.257812 -4.113281 1.273438 -4.285156 1.296875 -4.453125 C 1.316406 -4.628906 1.34375 -4.804688 1.375 -4.984375 C 1.394531 -5.097656 1.414062 -5.207031 1.4375 -5.3125 C 1.457031 -5.425781 1.46875 -5.539062 1.46875 -5.65625 C 1.476562 -5.769531 1.488281 -5.882812 1.5 -6 C 1.519531 -6.113281 1.539062 -6.226562 1.5625 -6.34375 C 1.582031 -6.445312 1.597656 -6.546875 1.609375 -6.640625 C 1.628906 -6.734375 1.644531 -6.828125 1.65625 -6.921875 C 1.675781 -7.140625 1.789062 -7.28125 2 -7.34375 C 2.175781 -7.394531 2.347656 -7.347656 2.515625 -7.203125 C 2.597656 -7.109375 2.671875 -7 2.734375 -6.875 C 2.804688 -6.757812 2.867188 -6.640625 2.921875 -6.515625 C 3.015625 -6.347656 3.097656 -6.175781 3.171875 -6 C 3.253906 -5.820312 3.335938 -5.644531 3.421875 -5.46875 C 3.523438 -5.257812 3.625 -5.050781 3.71875 -4.84375 C 3.8125 -4.632812 3.914062 -4.421875 4.03125 -4.203125 C 4.15625 -3.953125 4.273438 -3.691406 4.390625 -3.421875 C 4.515625 -3.148438 4.632812 -2.882812 4.75 -2.625 L 4.9375 -2.15625 C 4.976562 -2.050781 5.007812 -2 5.03125 -2 L 5.046875 -2 C 5.117188 -2.125 5.175781 -2.25 5.21875 -2.375 C 5.257812 -2.5 5.296875 -2.617188 5.328125 -2.734375 L 5.421875 -2.953125 C 5.460938 -3.066406 5.503906 -3.175781 5.546875 -3.28125 C 5.585938 -3.382812 5.628906 -3.488281 5.671875 -3.59375 C 5.765625 -3.851562 5.863281 -4.113281 5.96875 -4.375 C 6.070312 -4.632812 6.175781 -4.890625 6.28125 -5.140625 C 6.332031 -5.273438 6.382812 -5.410156 6.4375 -5.546875 C 6.488281 -5.679688 6.539062 -5.816406 6.59375 -5.953125 L 6.921875 -6.75 C 6.960938 -6.84375 7.003906 -6.929688 7.046875 -7.015625 C 7.085938 -7.097656 7.148438 -7.171875 7.234375 -7.234375 C 7.367188 -7.328125 7.503906 -7.351562 7.640625 -7.3125 C 7.785156 -7.28125 7.882812 -7.179688 7.9375 -7.015625 C 7.976562 -6.898438 8.007812 -6.78125 8.03125 -6.65625 C 8.0625 -6.539062 8.082031 -6.414062 8.09375 -6.28125 C 8.101562 -6.238281 8.113281 -6.191406 8.125 -6.140625 C 8.132812 -6.085938 8.140625 -6.039062 8.140625 -6 C 8.160156 -5.882812 8.179688 -5.765625 8.203125 -5.640625 C 8.222656 -5.515625 8.242188 -5.390625 8.265625 -5.265625 L 8.453125 -4.046875 C 8.472656 -3.890625 8.492188 -3.734375 8.515625 -3.578125 C 8.535156 -3.429688 8.5625 -3.28125 8.59375 -3.125 C 8.632812 -2.96875 8.660156 -2.804688 8.671875 -2.640625 C 8.691406 -2.472656 8.703125 -2.304688 8.703125 -2.140625 C 8.710938 -1.984375 8.722656 -1.832031 8.734375 -1.6875 C 8.753906 -1.539062 8.773438 -1.394531 8.796875 -1.25 C 8.804688 -1.125 8.796875 -1.015625 8.765625 -0.921875 C 8.722656 -0.816406 8.664062 -0.726562 8.59375 -0.65625 C 8.519531 -0.59375 8.425781 -0.566406 8.3125 -0.578125 C 8.21875 -0.578125 8.128906 -0.613281 8.046875 -0.6875 C 7.960938 -0.757812 7.914062 -0.84375 7.90625 -0.9375 C 7.863281 -1.207031 7.828125 -1.476562 7.796875 -1.75 C 7.773438 -2.03125 7.757812 -2.3125 7.75 -2.59375 C 7.71875 -2.957031 7.679688 -3.304688 7.640625 -3.640625 C 7.617188 -3.753906 7.597656 -3.875 7.578125 -4 C 7.554688 -4.125 7.535156 -4.25 7.515625 -4.375 L 7.40625 -5.109375 C 7.394531 -5.140625 7.378906 -5.171875 7.359375 -5.203125 C 7.347656 -5.242188 7.335938 -5.265625 7.328125 -5.265625 L 7.296875 -5.265625 C 7.234375 -5.191406 7.179688 -5.101562 7.140625 -5 C 7.097656 -4.90625 7.0625 -4.804688 7.03125 -4.703125 L 6.921875 -4.453125 C 6.753906 -4.023438 6.582031 -3.59375 6.40625 -3.15625 C 6.238281 -2.726562 6.070312 -2.300781 5.90625 -1.875 C 5.851562 -1.726562 5.8125 -1.601562 5.78125 -1.5 C 5.738281 -1.382812 5.691406 -1.269531 5.640625 -1.15625 C 5.597656 -1.039062 5.546875 -0.925781 5.484375 -0.8125 L 5.328125 -0.59375 C 5.203125 -0.40625 5.054688 -0.328125 4.890625 -0.359375 C 4.691406 -0.398438 4.546875 -0.535156 4.453125 -0.765625 L 4.234375 -1.375 C 4.203125 -1.46875 4.164062 -1.5625 4.125 -1.65625 C 4.09375 -1.757812 4.0625 -1.863281 4.03125 -1.96875 C 3.914062 -2.28125 3.796875 -2.582031 3.671875 -2.875 C 3.546875 -3.164062 3.414062 -3.457031 3.28125 -3.75 C 3.21875 -3.863281 3.15625 -3.984375 3.09375 -4.109375 C 3.039062 -4.242188 2.988281 -4.367188 2.9375 -4.484375 C 2.875 -4.640625 2.804688 -4.789062 2.734375 -4.9375 C 2.660156 -5.09375 2.582031 -5.25 2.5 -5.40625 C 2.445312 -5.5 2.410156 -5.546875 2.390625 -5.546875 L 2.375 -5.546875 C 2.320312 -5.296875 2.28125 -5.054688 2.25 -4.828125 C 2.226562 -4.597656 2.203125 -4.367188 2.171875 -4.140625 C 2.128906 -3.765625 2.09375 -3.378906 2.0625 -2.984375 C 2.039062 -2.597656 2.019531 -2.210938 2 -1.828125 L 1.953125 -1.171875 C 1.953125 -1.085938 1.945312 -1.003906 1.9375 -0.921875 C 1.9375 -0.847656 1.9375 -0.773438 1.9375 -0.703125 C 1.925781 -0.617188 1.921875 -0.535156 1.921875 -0.453125 C 1.921875 -0.378906 1.914062 -0.300781 1.90625 -0.21875 C 1.882812 0.09375 1.734375 0.265625 1.453125 0.296875 Z M 1.453125 0.296875 "/></g></g></g><g fill="#000000" fill-opacity="1"><g transform="translate(38.527609, 18.323862)"><g><path d="M 2.53125 -0.8125 C 2.382812 -0.71875 2.238281 -0.703125 2.09375 -0.765625 C 1.957031 -0.835938 1.875 -0.96875 1.84375 -1.15625 C 1.820312 -1.34375 1.8125 -1.523438 1.8125 -1.703125 C 1.820312 -1.890625 1.816406 -2.070312 1.796875 -2.25 C 1.765625 -2.65625 1.753906 -3.0625 1.765625 -3.46875 C 1.785156 -3.875 1.804688 -4.273438 1.828125 -4.671875 C 1.847656 -4.878906 1.863281 -5.085938 1.875 -5.296875 C 1.882812 -5.503906 1.894531 -5.707031 1.90625 -5.90625 C 1.894531 -6.007812 1.894531 -6.113281 1.90625 -6.21875 C 1.914062 -6.320312 1.9375 -6.421875 1.96875 -6.515625 C 2.007812 -6.703125 2.113281 -6.816406 2.28125 -6.859375 C 2.363281 -6.890625 2.441406 -6.890625 2.515625 -6.859375 C 2.585938 -6.828125 2.65625 -6.78125 2.71875 -6.71875 C 2.84375 -6.59375 2.910156 -6.445312 2.921875 -6.28125 C 2.941406 -6.113281 2.910156 -5.953125 2.828125 -5.796875 C 2.816406 -5.785156 2.8125 -5.78125 2.8125 -5.78125 C 2.8125 -5.78125 2.804688 -5.773438 2.796875 -5.765625 C 2.796875 -5.722656 2.789062 -5.6875 2.78125 -5.65625 C 2.78125 -5.625 2.78125 -5.585938 2.78125 -5.546875 C 2.757812 -5.210938 2.738281 -4.875 2.71875 -4.53125 C 2.695312 -4.195312 2.6875 -3.859375 2.6875 -3.515625 C 2.6875 -3.171875 2.695312 -2.820312 2.71875 -2.46875 C 2.75 -2.125 2.773438 -1.78125 2.796875 -1.4375 C 2.796875 -1.3125 2.78125 -1.191406 2.75 -1.078125 C 2.71875 -0.972656 2.644531 -0.882812 2.53125 -0.8125 Z M 2.53125 -0.8125 "/></g></g></g><g fill="#000000" fill-opacity="1"><g transform="translate(42.808077, 18.323862)"><g><path d="M 2.09375 -0.0625 C 1.664062 -0.0390625 1.425781 -0.234375 1.375 -0.640625 C 1.351562 -0.796875 1.34375 -0.957031 1.34375 -1.125 C 1.332031 -1.40625 1.320312 -1.6875 1.3125 -1.96875 C 1.3125 -2.25 1.304688 -2.523438 1.296875 -2.796875 C 1.285156 -2.941406 1.28125 -3.082031 1.28125 -3.21875 C 1.28125 -3.363281 1.273438 -3.503906 1.265625 -3.640625 C 1.242188 -4.066406 1.238281 -4.5625 1.25 -5.125 C 1.269531 -5.6875 1.296875 -6.21875 1.328125 -6.71875 C 1.347656 -6.875 1.40625 -6.992188 1.5 -7.078125 C 1.601562 -7.160156 1.722656 -7.195312 1.859375 -7.1875 C 2.109375 -7.15625 2.222656 -6.96875 2.203125 -6.625 C 2.191406 -6.394531 2.179688 -6.148438 2.171875 -5.890625 C 2.171875 -5.628906 2.171875 -5.382812 2.171875 -5.15625 C 2.171875 -4.9375 2.164062 -4.773438 2.15625 -4.671875 C 2.144531 -4.304688 2.140625 -3.988281 2.140625 -3.71875 C 2.148438 -3.457031 2.160156 -3.203125 2.171875 -2.953125 C 2.171875 -2.878906 2.171875 -2.800781 2.171875 -2.71875 C 2.171875 -2.632812 2.171875 -2.546875 2.171875 -2.453125 C 2.179688 -2.222656 2.1875 -1.992188 2.1875 -1.765625 C 2.195312 -1.546875 2.207031 -1.320312 2.21875 -1.09375 C 2.226562 -0.988281 2.285156 -0.9375 2.390625 -0.9375 C 2.773438 -0.925781 3.140625 -0.914062 3.484375 -0.90625 C 3.828125 -0.90625 4.1875 -0.929688 4.5625 -0.984375 C 4.65625 -0.992188 4.710938 -1.054688 4.734375 -1.171875 C 4.742188 -1.347656 4.753906 -1.625 4.765625 -2 C 4.785156 -2.375 4.800781 -2.804688 4.8125 -3.296875 C 4.832031 -3.785156 4.847656 -4.296875 4.859375 -4.828125 C 4.867188 -5.359375 4.878906 -5.875 4.890625 -6.375 C 4.890625 -6.707031 5.03125 -6.894531 5.3125 -6.9375 C 5.4375 -6.945312 5.539062 -6.90625 5.625 -6.8125 C 5.71875 -6.726562 5.769531 -6.609375 5.78125 -6.453125 C 5.78125 -6.335938 5.773438 -6.222656 5.765625 -6.109375 C 5.765625 -6.003906 5.765625 -5.894531 5.765625 -5.78125 C 5.753906 -5.382812 5.742188 -4.957031 5.734375 -4.5 C 5.722656 -4.050781 5.710938 -3.609375 5.703125 -3.171875 C 5.691406 -2.734375 5.675781 -2.320312 5.65625 -1.9375 C 5.644531 -1.820312 5.640625 -1.703125 5.640625 -1.578125 C 5.640625 -1.453125 5.640625 -1.332031 5.640625 -1.21875 C 5.640625 -1.101562 5.703125 -1.035156 5.828125 -1.015625 C 6.242188 -0.992188 6.613281 -0.992188 6.9375 -1.015625 C 7.257812 -1.046875 7.59375 -1.078125 7.9375 -1.109375 C 8.039062 -1.117188 8.101562 -1.1875 8.125 -1.3125 C 8.132812 -1.53125 8.140625 -1.753906 8.140625 -1.984375 C 8.140625 -2.210938 8.144531 -2.441406 8.15625 -2.671875 C 8.15625 -2.753906 8.15625 -2.835938 8.15625 -2.921875 C 8.164062 -3.003906 8.171875 -3.085938 8.171875 -3.171875 C 8.179688 -3.410156 8.1875 -3.660156 8.1875 -3.921875 C 8.195312 -4.191406 8.195312 -4.507812 8.1875 -4.875 C 8.175781 -5.21875 8.164062 -5.5625 8.15625 -5.90625 C 8.15625 -6.257812 8.148438 -6.613281 8.140625 -6.96875 C 8.117188 -7.300781 8.234375 -7.488281 8.484375 -7.53125 C 8.617188 -7.5625 8.738281 -7.535156 8.84375 -7.453125 C 8.945312 -7.367188 9 -7.253906 9 -7.109375 C 9.03125 -6.785156 9.050781 -6.429688 9.0625 -6.046875 C 9.082031 -5.660156 9.09375 -5.28125 9.09375 -4.90625 C 9.09375 -4.539062 9.082031 -4.210938 9.0625 -3.921875 C 9.050781 -3.773438 9.046875 -3.628906 9.046875 -3.484375 C 9.046875 -3.347656 9.046875 -3.210938 9.046875 -3.078125 C 9.035156 -2.796875 9.023438 -2.515625 9.015625 -2.234375 C 9.015625 -1.960938 9.007812 -1.679688 9 -1.390625 C 9 -1.210938 8.984375 -1.050781 8.953125 -0.90625 C 8.898438 -0.507812 8.664062 -0.296875 8.25 -0.265625 C 8.195312 -0.265625 8.046875 -0.257812 7.796875 -0.25 C 7.546875 -0.238281 7.253906 -0.226562 6.921875 -0.21875 C 6.585938 -0.207031 6.257812 -0.195312 5.9375 -0.1875 C 5.613281 -0.1875 5.351562 -0.191406 5.15625 -0.203125 C 5.125 -0.203125 5.085938 -0.203125 5.046875 -0.203125 C 5.003906 -0.203125 4.945312 -0.195312 4.875 -0.1875 C 4.707031 -0.15625 4.476562 -0.132812 4.1875 -0.125 C 3.894531 -0.113281 3.597656 -0.101562 3.296875 -0.09375 C 2.992188 -0.0820312 2.726562 -0.0703125 2.5 -0.0625 C 2.28125 -0.0625 2.144531 -0.0625 2.09375 -0.0625 Z M 2.09375 -0.0625 "/></g></g></g><g fill="#000000" fill-opacity="1"><g transform="translate(52.690387, 18.323862)"><g><path d="M 1.75 -0.03125 C 1.519531 -0.0078125 1.378906 -0.117188 1.328125 -0.359375 C 1.285156 -0.546875 1.265625 -0.734375 1.265625 -0.921875 C 1.265625 -1.117188 1.265625 -1.3125 1.265625 -1.5 C 1.253906 -1.800781 1.242188 -2.097656 1.234375 -2.390625 C 1.234375 -2.691406 1.238281 -2.992188 1.25 -3.296875 C 1.257812 -3.628906 1.265625 -4 1.265625 -4.40625 C 1.265625 -4.8125 1.273438 -5.21875 1.296875 -5.625 C 1.316406 -6.03125 1.335938 -6.398438 1.359375 -6.734375 C 1.367188 -6.796875 1.363281 -6.859375 1.34375 -6.921875 C 1.332031 -6.984375 1.328125 -7.050781 1.328125 -7.125 C 1.316406 -7.257812 1.347656 -7.375 1.421875 -7.46875 C 1.492188 -7.570312 1.59375 -7.628906 1.71875 -7.640625 C 1.832031 -7.660156 1.941406 -7.632812 2.046875 -7.5625 C 2.148438 -7.5 2.210938 -7.394531 2.234375 -7.25 C 2.253906 -7.144531 2.265625 -7.039062 2.265625 -6.9375 C 2.265625 -6.84375 2.257812 -6.742188 2.25 -6.640625 C 2.238281 -6.335938 2.222656 -6 2.203125 -5.625 C 2.179688 -5.257812 2.164062 -4.882812 2.15625 -4.5 C 2.144531 -4.113281 2.144531 -3.753906 2.15625 -3.421875 C 2.15625 -3.335938 2.175781 -3.285156 2.21875 -3.265625 C 2.269531 -3.242188 2.328125 -3.257812 2.390625 -3.3125 C 2.484375 -3.394531 2.570312 -3.472656 2.65625 -3.546875 C 2.75 -3.628906 2.84375 -3.707031 2.9375 -3.78125 C 3.289062 -4.0625 3.671875 -4.359375 4.078125 -4.671875 C 4.492188 -4.984375 4.890625 -5.265625 5.265625 -5.515625 C 5.492188 -5.679688 5.71875 -5.847656 5.9375 -6.015625 C 6.164062 -6.191406 6.394531 -6.367188 6.625 -6.546875 C 6.664062 -6.578125 6.707031 -6.609375 6.75 -6.640625 C 6.789062 -6.671875 6.84375 -6.691406 6.90625 -6.703125 C 7 -6.734375 7.09375 -6.726562 7.1875 -6.6875 C 7.28125 -6.644531 7.351562 -6.582031 7.40625 -6.5 C 7.507812 -6.300781 7.46875 -6.117188 7.28125 -5.953125 C 7.0625 -5.785156 6.835938 -5.613281 6.609375 -5.4375 C 6.390625 -5.269531 6.171875 -5.101562 5.953125 -4.9375 C 5.722656 -4.78125 5.460938 -4.601562 5.171875 -4.40625 C 4.890625 -4.21875 4.625 -4.03125 4.375 -3.84375 C 4.28125 -3.78125 4.269531 -3.691406 4.34375 -3.578125 C 4.4375 -3.503906 4.519531 -3.421875 4.59375 -3.328125 C 4.664062 -3.234375 4.738281 -3.144531 4.8125 -3.0625 C 5.09375 -2.726562 5.394531 -2.414062 5.71875 -2.125 C 6.050781 -1.84375 6.375 -1.554688 6.6875 -1.265625 C 6.75 -1.210938 6.800781 -1.15625 6.84375 -1.09375 C 6.882812 -1.03125 6.914062 -0.957031 6.9375 -0.875 C 7 -0.664062 6.945312 -0.5 6.78125 -0.375 C 6.582031 -0.238281 6.40625 -0.242188 6.25 -0.390625 C 6.09375 -0.535156 5.9375 -0.679688 5.78125 -0.828125 C 5.625 -0.984375 5.472656 -1.132812 5.328125 -1.28125 C 5.054688 -1.539062 4.796875 -1.804688 4.546875 -2.078125 C 4.296875 -2.347656 4.050781 -2.625 3.8125 -2.90625 C 3.800781 -2.9375 3.78125 -2.960938 3.75 -2.984375 C 3.726562 -3.015625 3.703125 -3.046875 3.671875 -3.078125 C 3.585938 -3.160156 3.5 -3.160156 3.40625 -3.078125 C 3.226562 -2.910156 3.039062 -2.765625 2.84375 -2.640625 C 2.644531 -2.515625 2.453125 -2.367188 2.265625 -2.203125 C 2.203125 -2.140625 2.171875 -2.066406 2.171875 -1.984375 L 2.171875 -0.71875 C 2.171875 -0.664062 2.171875 -0.609375 2.171875 -0.546875 C 2.171875 -0.484375 2.164062 -0.421875 2.15625 -0.359375 C 2.132812 -0.253906 2.082031 -0.171875 2 -0.109375 C 1.925781 -0.0546875 1.84375 -0.03125 1.75 -0.03125 Z M 1.75 -0.03125 "/></g></g></g><g fill="#000000" fill-opacity="1"><g transform="translate(60.126476, 18.323862)"><g><path d="M 0.921875 0.328125 C 0.796875 0.335938 0.691406 0.304688 0.609375 0.234375 C 0.523438 0.171875 0.476562 0.0859375 0.46875 -0.015625 C 0.46875 -0.0546875 0.472656 -0.109375 0.484375 -0.171875 C 0.515625 -0.242188 0.550781 -0.367188 0.59375 -0.546875 C 0.632812 -0.734375 0.679688 -0.925781 0.734375 -1.125 C 0.785156 -1.332031 0.828125 -1.507812 0.859375 -1.65625 C 0.890625 -1.800781 0.898438 -1.878906 0.890625 -1.890625 C 0.835938 -1.960938 0.800781 -2.035156 0.78125 -2.109375 C 0.769531 -2.179688 0.765625 -2.242188 0.765625 -2.296875 C 0.753906 -2.421875 0.820312 -2.53125 0.96875 -2.625 C 1.007812 -2.65625 1.039062 -2.679688 1.0625 -2.703125 C 1.082031 -2.734375 1.097656 -2.773438 1.109375 -2.828125 C 1.285156 -3.523438 1.441406 -4.132812 1.578125 -4.65625 C 1.722656 -5.1875 1.867188 -5.65625 2.015625 -6.0625 C 2.171875 -6.476562 2.351562 -6.847656 2.5625 -7.171875 C 2.800781 -7.546875 3.085938 -7.734375 3.421875 -7.734375 C 3.585938 -7.734375 3.769531 -7.679688 3.96875 -7.578125 C 4.175781 -7.472656 4.367188 -7.226562 4.546875 -6.84375 C 4.734375 -6.46875 4.898438 -6.015625 5.046875 -5.484375 C 5.191406 -4.953125 5.320312 -4.390625 5.4375 -3.796875 C 5.550781 -3.203125 5.644531 -2.628906 5.71875 -2.078125 C 5.800781 -1.523438 5.867188 -1.035156 5.921875 -0.609375 C 5.941406 -0.410156 5.90625 -0.253906 5.8125 -0.140625 C 5.726562 -0.0234375 5.617188 0.03125 5.484375 0.03125 C 5.335938 0.03125 5.21875 -0.015625 5.125 -0.109375 C 5.039062 -0.203125 4.992188 -0.328125 4.984375 -0.484375 C 4.984375 -0.566406 4.988281 -0.65625 5 -0.75 C 5.007812 -0.851562 5.007812 -0.945312 5 -1.03125 C 4.988281 -1.132812 4.972656 -1.238281 4.953125 -1.34375 C 4.941406 -1.445312 4.921875 -1.550781 4.890625 -1.65625 C 4.859375 -1.769531 4.789062 -1.820312 4.6875 -1.8125 C 4.40625 -1.789062 4.09375 -1.78125 3.75 -1.78125 C 3.414062 -1.78125 3.085938 -1.78125 2.765625 -1.78125 C 2.441406 -1.78125 2.164062 -1.773438 1.9375 -1.765625 C 1.832031 -1.765625 1.765625 -1.710938 1.734375 -1.609375 C 1.703125 -1.472656 1.660156 -1.296875 1.609375 -1.078125 C 1.566406 -0.867188 1.519531 -0.660156 1.46875 -0.453125 C 1.414062 -0.242188 1.367188 -0.0859375 1.328125 0.015625 C 1.285156 0.0976562 1.234375 0.171875 1.171875 0.234375 C 1.117188 0.296875 1.035156 0.328125 0.921875 0.328125 Z M 2.0625 -2.890625 C 2.03125 -2.753906 2.085938 -2.6875 2.234375 -2.6875 C 2.566406 -2.707031 2.9375 -2.710938 3.34375 -2.703125 C 3.757812 -2.691406 4.164062 -2.703125 4.5625 -2.734375 C 4.6875 -2.734375 4.738281 -2.800781 4.71875 -2.9375 C 4.65625 -3.351562 4.570312 -3.804688 4.46875 -4.296875 C 4.363281 -4.785156 4.242188 -5.25 4.109375 -5.6875 C 3.984375 -6.125 3.828125 -6.472656 3.640625 -6.734375 C 3.609375 -6.796875 3.566406 -6.820312 3.515625 -6.8125 C 3.472656 -6.8125 3.429688 -6.78125 3.390625 -6.71875 C 3.035156 -6.125 2.765625 -5.503906 2.578125 -4.859375 C 2.390625 -4.210938 2.21875 -3.554688 2.0625 -2.890625 Z M 2.0625 -2.890625 "/></g></g></g><g fill="#000000" fill-opacity="1"><g transform="translate(66.412839, 18.323862)"><g/></g></g><g fill="#000000" fill-opacity="1"><g transform="translate(69.653665, 18.323862)"><g><path d="M 2.09375 -0.0625 C 1.664062 -0.0390625 1.425781 -0.234375 1.375 -0.640625 C 1.351562 -0.796875 1.34375 -0.957031 1.34375 -1.125 C 1.332031 -1.40625 1.320312 -1.6875 1.3125 -1.96875 C 1.3125 -2.25 1.304688 -2.523438 1.296875 -2.796875 C 1.285156 -2.941406 1.28125 -3.082031 1.28125 -3.21875 C 1.28125 -3.363281 1.273438 -3.503906 1.265625 -3.640625 C 1.242188 -4.066406 1.238281 -4.5625 1.25 -5.125 C 1.269531 -5.6875 1.296875 -6.21875 1.328125 -6.71875 C 1.347656 -6.875 1.40625 -6.992188 1.5 -7.078125 C 1.601562 -7.160156 1.722656 -7.195312 1.859375 -7.1875 C 2.109375 -7.15625 2.222656 -6.96875 2.203125 -6.625 C 2.191406 -6.394531 2.179688 -6.148438 2.171875 -5.890625 C 2.171875 -5.628906 2.171875 -5.382812 2.171875 -5.15625 C 2.171875 -4.9375 2.164062 -4.773438 2.15625 -4.671875 C 2.144531 -4.304688 2.140625 -3.988281 2.140625 -3.71875 C 2.148438 -3.457031 2.160156 -3.203125 2.171875 -2.953125 C 2.171875 -2.878906 2.171875 -2.800781 2.171875 -2.71875 C 2.171875 -2.632812 2.171875 -2.546875 2.171875 -2.453125 C 2.179688 -2.222656 2.1875 -1.992188 2.1875 -1.765625 C 2.195312 -1.546875 2.207031 -1.320312 2.21875 -1.09375 C 2.226562 -0.988281 2.285156 -0.9375 2.390625 -0.9375 C 2.773438 -0.925781 3.140625 -0.914062 3.484375 -0.90625 C 3.828125 -0.90625 4.1875 -0.929688 4.5625 -0.984375 C 4.65625 -0.992188 4.710938 -1.054688 4.734375 -1.171875 C 4.742188 -1.347656 4.753906 -1.625 4.765625 -2 C 4.785156 -2.375 4.800781 -2.804688 4.8125 -3.296875 C 4.832031 -3.785156 4.847656 -4.296875 4.859375 -4.828125 C 4.867188 -5.359375 4.878906 -5.875 4.890625 -6.375 C 4.890625 -6.707031 5.03125 -6.894531 5.3125 -6.9375 C 5.4375 -6.945312 5.539062 -6.90625 5.625 -6.8125 C 5.71875 -6.726562 5.769531 -6.609375 5.78125 -6.453125 C 5.78125 -6.335938 5.773438 -6.222656 5.765625 -6.109375 C 5.765625 -6.003906 5.765625 -5.894531 5.765625 -5.78125 C 5.753906 -5.382812 5.742188 -4.957031 5.734375 -4.5 C 5.722656 -4.050781 5.710938 -3.609375 5.703125 -3.171875 C 5.691406 -2.734375 5.675781 -2.320312 5.65625 -1.9375 C 5.644531 -1.820312 5.640625 -1.703125 5.640625 -1.578125 C 5.640625 -1.453125 5.640625 -1.332031 5.640625 -1.21875 C 5.640625 -1.101562 5.703125 -1.035156 5.828125 -1.015625 C 6.242188 -0.992188 6.613281 -0.992188 6.9375 -1.015625 C 7.257812 -1.046875 7.59375 -1.078125 7.9375 -1.109375 C 8.039062 -1.117188 8.101562 -1.1875 8.125 -1.3125 C 8.132812 -1.53125 8.140625 -1.753906 8.140625 -1.984375 C 8.140625 -2.210938 8.144531 -2.441406 8.15625 -2.671875 C 8.15625 -2.753906 8.15625 -2.835938 8.15625 -2.921875 C 8.164062 -3.003906 8.171875 -3.085938 8.171875 -3.171875 C 8.179688 -3.410156 8.1875 -3.660156 8.1875 -3.921875 C 8.195312 -4.191406 8.195312 -4.507812 8.1875 -4.875 C 8.175781 -5.21875 8.164062 -5.5625 8.15625 -5.90625 C 8.15625 -6.257812 8.148438 -6.613281 8.140625 -6.96875 C 8.117188 -7.300781 8.234375 -7.488281 8.484375 -7.53125 C 8.617188 -7.5625 8.738281 -7.535156 8.84375 -7.453125 C 8.945312 -7.367188 9 -7.253906 9 -7.109375 C 9.03125 -6.785156 9.050781 -6.429688 9.0625 -6.046875 C 9.082031 -5.660156 9.09375 -5.28125 9.09375 -4.90625 C 9.09375 -4.539062 9.082031 -4.210938 9.0625 -3.921875 C 9.050781 -3.773438 9.046875 -3.628906 9.046875 -3.484375 C 9.046875 -3.347656 9.046875 -3.210938 9.046875 -3.078125 C 9.035156 -2.796875 9.023438 -2.515625 9.015625 -2.234375 C 9.015625 -1.960938 9.007812 -1.679688 9 -1.390625 C 9 -1.210938 8.984375 -1.050781 8.953125 -0.90625 C 8.898438 -0.507812 8.664062 -0.296875 8.25 -0.265625 C 8.195312 -0.265625 8.046875 -0.257812 7.796875 -0.25 C 7.546875 -0.238281 7.253906 -0.226562 6.921875 -0.21875 C 6.585938 -0.207031 6.257812 -0.195312 5.9375 -0.1875 C 5.613281 -0.1875 5.351562 -0.191406 5.15625 -0.203125 C 5.125 -0.203125 5.085938 -0.203125 5.046875 -0.203125 C 5.003906 -0.203125 4.945312 -0.195312 4.875 -0.1875 C 4.707031 -0.15625 4.476562 -0.132812 4.1875 -0.125 C 3.894531 -0.113281 3.597656 -0.101562 3.296875 -0.09375 C 2.992188 -0.0820312 2.726562 -0.0703125 2.5 -0.0625 C 2.28125 -0.0625 2.144531 -0.0625 2.09375 -0.0625 Z M 2.09375 -0.0625 "/></g></g></g><g fill="#000000" fill-opacity="1"><g transform="translate(79.535975, 18.323862)"><g><path d="M 3.640625 -0.109375 C 3.140625 -0.109375 2.675781 -0.242188 2.25 -0.515625 C 1.820312 -0.785156 1.484375 -1.144531 1.234375 -1.59375 C 0.984375 -2.050781 0.851562 -2.566406 0.84375 -3.140625 C 0.84375 -4.015625 1.03125 -4.765625 1.40625 -5.390625 C 1.789062 -6.023438 2.421875 -6.492188 3.296875 -6.796875 C 3.359375 -6.816406 3.414062 -6.832031 3.46875 -6.84375 C 3.53125 -6.863281 3.609375 -6.875 3.703125 -6.875 C 3.804688 -6.875 3.921875 -6.835938 4.046875 -6.765625 C 4.109375 -6.710938 4.179688 -6.6875 4.265625 -6.6875 C 4.609375 -6.644531 4.929688 -6.53125 5.234375 -6.34375 C 5.535156 -6.15625 5.800781 -5.910156 6.03125 -5.609375 C 6.269531 -5.304688 6.453125 -4.972656 6.578125 -4.609375 C 6.710938 -4.253906 6.78125 -3.894531 6.78125 -3.53125 C 6.789062 -2.875 6.671875 -2.285156 6.421875 -1.765625 C 6.171875 -1.253906 5.8125 -0.847656 5.34375 -0.546875 C 4.875 -0.253906 4.304688 -0.109375 3.640625 -0.109375 Z M 3.875 -0.984375 C 4.300781 -0.984375 4.664062 -1.113281 4.96875 -1.375 C 5.28125 -1.632812 5.515625 -1.957031 5.671875 -2.34375 C 5.835938 -2.738281 5.910156 -3.140625 5.890625 -3.546875 C 5.878906 -3.972656 5.789062 -4.335938 5.625 -4.640625 C 5.46875 -4.941406 5.265625 -5.1875 5.015625 -5.375 C 4.773438 -5.5625 4.519531 -5.6875 4.25 -5.75 C 4.175781 -5.769531 4.097656 -5.785156 4.015625 -5.796875 C 3.941406 -5.804688 3.863281 -5.828125 3.78125 -5.859375 C 3.738281 -5.878906 3.695312 -5.894531 3.65625 -5.90625 C 3.625 -5.914062 3.582031 -5.910156 3.53125 -5.890625 C 3.082031 -5.804688 2.726562 -5.625 2.46875 -5.34375 C 2.21875 -5.070312 2.035156 -4.753906 1.921875 -4.390625 C 1.816406 -4.035156 1.765625 -3.695312 1.765625 -3.375 C 1.773438 -2.84375 1.878906 -2.398438 2.078125 -2.046875 C 2.285156 -1.691406 2.550781 -1.425781 2.875 -1.25 C 3.195312 -1.070312 3.53125 -0.984375 3.875 -0.984375 Z M 3.875 -0.984375 "/></g></g></g><g fill="#000000" fill-opacity="1"><g transform="translate(86.751907, 18.323862)"><g><path d="M 2.921875 0 C 2.742188 0.0195312 2.570312 0.0195312 2.40625 0 C 2.238281 -0.0195312 2.066406 -0.0390625 1.890625 -0.0625 C 1.773438 -0.0703125 1.6875 -0.117188 1.625 -0.203125 C 1.5625 -0.296875 1.535156 -0.398438 1.546875 -0.515625 C 1.566406 -0.628906 1.617188 -0.710938 1.703125 -0.765625 C 1.796875 -0.828125 1.910156 -0.847656 2.046875 -0.828125 C 2.273438 -0.796875 2.507812 -0.785156 2.75 -0.796875 C 2.988281 -0.816406 3.222656 -0.867188 3.453125 -0.953125 C 3.765625 -1.066406 4.007812 -1.238281 4.1875 -1.46875 C 4.375 -1.695312 4.515625 -1.960938 4.609375 -2.265625 C 4.710938 -2.578125 4.78125 -2.894531 4.8125 -3.21875 C 4.84375 -3.550781 4.863281 -3.878906 4.875 -4.203125 L 4.875 -4.296875 C 4.875 -4.378906 4.84375 -4.429688 4.78125 -4.453125 C 4.726562 -4.472656 4.679688 -4.445312 4.640625 -4.375 C 4.585938 -4.3125 4.535156 -4.25 4.484375 -4.1875 C 4.441406 -4.125 4.398438 -4.054688 4.359375 -3.984375 C 4.171875 -3.765625 3.960938 -3.566406 3.734375 -3.390625 C 3.515625 -3.222656 3.265625 -3.097656 2.984375 -3.015625 C 2.503906 -2.898438 2.078125 -2.941406 1.703125 -3.140625 C 1.335938 -3.347656 1.117188 -3.726562 1.046875 -4.28125 C 0.972656 -4.75 0.953125 -5.207031 0.984375 -5.65625 C 1.015625 -6.113281 1.039062 -6.570312 1.0625 -7.03125 C 1.070312 -7.175781 1.117188 -7.285156 1.203125 -7.359375 C 1.296875 -7.441406 1.398438 -7.476562 1.515625 -7.46875 C 1.628906 -7.445312 1.710938 -7.378906 1.765625 -7.265625 C 1.828125 -7.160156 1.847656 -7.039062 1.828125 -6.90625 C 1.816406 -6.75 1.804688 -6.59375 1.796875 -6.4375 C 1.785156 -6.28125 1.78125 -6.125 1.78125 -5.96875 C 1.769531 -5.769531 1.765625 -5.566406 1.765625 -5.359375 C 1.765625 -5.148438 1.769531 -4.945312 1.78125 -4.75 C 1.78125 -4.632812 1.789062 -4.519531 1.8125 -4.40625 C 1.832031 -4.300781 1.859375 -4.195312 1.890625 -4.09375 C 1.929688 -3.945312 2 -3.847656 2.09375 -3.796875 C 2.195312 -3.742188 2.320312 -3.71875 2.46875 -3.71875 C 2.757812 -3.726562 3.003906 -3.800781 3.203125 -3.9375 C 3.398438 -4.070312 3.582031 -4.238281 3.75 -4.4375 C 4.050781 -4.800781 4.28125 -5.191406 4.4375 -5.609375 C 4.59375 -6.023438 4.726562 -6.453125 4.84375 -6.890625 C 4.863281 -6.941406 4.878906 -6.988281 4.890625 -7.03125 C 4.898438 -7.070312 4.921875 -7.109375 4.953125 -7.140625 C 5.015625 -7.222656 5.082031 -7.28125 5.15625 -7.3125 C 5.226562 -7.351562 5.3125 -7.351562 5.40625 -7.3125 C 5.5 -7.28125 5.5625 -7.226562 5.59375 -7.15625 C 5.632812 -7.09375 5.65625 -7.007812 5.65625 -6.90625 C 5.65625 -6.632812 5.648438 -6.359375 5.640625 -6.078125 C 5.628906 -5.796875 5.632812 -5.515625 5.65625 -5.234375 C 5.675781 -4.847656 5.675781 -4.460938 5.65625 -4.078125 C 5.644531 -3.703125 5.617188 -3.320312 5.578125 -2.9375 C 5.535156 -2.488281 5.425781 -2.066406 5.25 -1.671875 C 5.082031 -1.285156 4.828125 -0.9375 4.484375 -0.625 C 4.265625 -0.425781 4.019531 -0.28125 3.75 -0.1875 C 3.488281 -0.101562 3.210938 -0.0390625 2.921875 0 Z M 2.921875 0 "/></g></g></g></svg>