<svg xmlns="http://www.w3.org/2000/svg" xmlns:xlink="http://www.w3.org/1999/xlink" width="500" zoomAndPan="magnify" viewBox="0 0 375 374.999991" height="500" preserveAspectRatio="xMidYMid meet" version="1.0"><defs><clipPath id="b946d618ab"><path d="M 42 52 L 352 52 L 352 324.429688 L 42 324.429688 Z M 42 52 " clip-rule="nonzero"/></clipPath></defs><path fill="#ffffff" d="M 66.507812 124.585938 C 55.035156 120.160156 47.945312 109.589844 47.945312 97.300781 C 47.902344 85.398438 54.21875 74.871094 62.769531 67.050781 C 71.535156 59.015625 81.84375 54.203125 93.875 56.09375 C 105.003906 57.855469 113.640625 64.472656 120.082031 73.324219 C 114.753906 75.515625 109.601562 78.09375 104.660156 81.101562 C 95.421875 73.539062 80.597656 73.839844 72.4375 82.863281 C 64.53125 91.585938 66.894531 103.316406 75.273438 110.277344 C 72.179688 114.917969 69.386719 119.730469 66.851562 124.714844 C 66.722656 124.671875 66.636719 124.628906 66.507812 124.585938 Z M 310.800781 130 C 323.300781 155.480469 326.09375 185.902344 325.621094 213.917969 C 325.019531 249.710938 314.066406 283.957031 280.8125 301.785156 C 274.839844 304.964844 268.652344 307.757812 262.292969 310.078125 C 247.128906 315.664062 231.144531 318.800781 215.078125 320.132812 C 198.835938 321.464844 182.851562 320.648438 166.742188 318.628906 C 162.746094 318.113281 158.707031 317.597656 154.710938 316.996094 C 142.210938 315.148438 129.792969 312.785156 117.675781 309.261719 C 105.734375 305.78125 94.003906 301.144531 83.433594 294.484375 C 73.167969 288.039062 64.144531 279.574219 57.785156 269.21875 C 42.492188 244.339844 42.964844 211.039062 48.976562 183.453125 C 55.464844 153.761719 68.3125 120.417969 89.492188 97.988281 C 125.925781 59.402344 193.722656 58.457031 240.511719 74.699219 C 269.769531 84.882812 296.75 101.46875 310.800781 130 Z M 126.054688 163.429688 C 126.484375 161.753906 124.121094 161.195312 123.734375 162.914062 C 122.660156 167.898438 119.78125 173.699219 114.066406 174.386719 C 107.109375 175.246094 105.648438 165.535156 105.5625 160.59375 C 105.519531 157.457031 101.09375 157.585938 101.265625 160.765625 C 101.566406 167.511719 104.875 177.394531 113.039062 177.523438 C 121.027344 177.609375 124.378906 169.960938 126.054688 163.429688 Z M 208.332031 173.054688 C 188.050781 160.679688 156.515625 161.539062 138.945312 178.46875 C 122.832031 193.980469 118.320312 222.382812 120.855469 243.695312 C 122.53125 257.746094 128.804688 270.9375 141.523438 277.941406 C 147.625 281.292969 154.324219 283.570312 161.15625 284.859375 C 164.59375 285.503906 168.117188 285.933594 171.640625 286.0625 C 178.859375 286.363281 186.117188 286.75 193.164062 284.945312 C 198.835938 283.484375 204.164062 280.734375 208.675781 276.996094 C 218.039062 269.261719 223.753906 257.832031 226.675781 246.230469 C 227.019531 244.941406 227.320312 243.609375 227.578125 242.320312 C 232.476562 218.085938 231.789062 187.40625 208.332031 173.054688 Z M 278.234375 170.820312 C 278.535156 168.800781 275.527344 168.628906 275.140625 170.519531 C 274.066406 175.847656 270.199219 184.355469 264.011719 185.042969 C 256.019531 185.945312 256.621094 173.527344 257.351562 168.5 C 257.695312 166.050781 253.871094 165.707031 253.527344 168.15625 C 252.582031 175.117188 253.527344 188.136719 262.9375 188.609375 C 271.832031 189.039062 277.074219 178.210938 278.234375 170.820312 Z M 225.257812 228.957031 C 224.269531 242.0625 221.777344 255.511719 213.917969 266.382812 C 213.402344 267.070312 212.886719 267.800781 212.328125 268.445312 C 203.648438 279.101562 190.070312 283.398438 176.667969 283.269531 C 175.164062 283.269531 173.617188 282.96875 172.113281 282.796875 C 169.148438 282.453125 166.183594 282.066406 163.21875 281.507812 C 157.632812 280.519531 152.046875 279.058594 146.851562 276.695312 C 135.851562 271.667969 128.589844 262.386719 125.582031 250.742188 C 120.8125 232.007812 124.164062 206.398438 134.21875 189.726562 C 146.894531 168.757812 175.378906 163.558594 197.332031 171.378906 C 222.765625 180.488281 227.0625 204.980469 225.257812 228.957031 Z M 196.601562 190.714844 C 196.257812 181.21875 185.257812 177.394531 177.269531 177.78125 C 170.179688 178.125 161.84375 182.121094 163.304688 190.542969 C 164.335938 196.515625 170.351562 200.640625 176.324219 201.242188 C 174.648438 206.828125 174.046875 212.414062 173.058594 218.128906 C 171.984375 224.445312 170.523438 230.546875 169.835938 236.90625 C 164.9375 235.015625 161.628906 227.625 159.308594 223.113281 C 158.191406 220.921875 154.625 222.726562 155.871094 224.746094 C 159.351562 230.246094 163.777344 241.546875 171.640625 241.160156 C 179.589844 240.773438 186.933594 231.449219 191.1875 225.691406 C 192.046875 224.488281 190.285156 222.769531 189.253906 223.929688 C 185.558594 228.011719 181.691406 232.480469 177.097656 235.617188 C 175.59375 236.648438 174.21875 237.164062 172.886719 237.335938 C 173.746094 231.0625 174.132812 224.746094 175.378906 218.558594 C 176.496094 212.886719 178.257812 207.386719 179.246094 201.671875 C 186.71875 202.273438 196.945312 199.78125 196.601562 190.714844 Z M 310.5 70.703125 C 297.265625 68.984375 285.707031 77.234375 278.0625 87.546875 C 283.644531 91.027344 288.757812 94.894531 293.355469 99.191406 C 302.25 91.800781 316.300781 95.625 322.742188 104.433594 C 329.789062 114.101562 327.039062 126.949219 317.199219 133.480469 C 317.15625 133.523438 317.070312 133.523438 317.027344 133.566406 C 318.445312 136.960938 319.691406 140.441406 320.808594 144.09375 C 345.644531 138.292969 355.308594 108.988281 340.960938 88.492188 C 334 78.480469 322.441406 72.25 310.5 70.703125 Z M 310.5 70.703125 " fill-opacity="1" fill-rule="nonzero"/><g clip-path="url(#b946d618ab)"><path fill="#000000" d="M 310.84375 67.050781 C 295.71875 65.074219 282.445312 72.59375 274.023438 85.097656 C 273.121094 84.582031 272.21875 84.066406 271.273438 83.550781 C 242.617188 68.382812 210.867188 60.605469 178.386719 61.894531 C 160.296875 62.625 141.4375 65.289062 124.207031 71.691406 C 117.589844 61.378906 106.25 54.71875 94.175781 52.871094 C 80.082031 50.679688 67.710938 56.695312 57.785156 66.535156 C 39.570312 84.710938 37.808594 117.96875 64.917969 128.539062 C 60.878906 136.875 57.441406 145.425781 54.347656 153.890625 C 43.136719 184.484375 37.679688 218.601562 46.273438 250.570312 C 49.277344 261.785156 54.734375 272.183594 62.253906 280.992188 C 69.558594 289.5 78.582031 296.332031 88.332031 301.742188 C 98.472656 307.371094 109.386719 311.496094 120.554688 314.675781 C 131.8125 317.855469 143.328125 320.046875 154.925781 321.59375 C 159.09375 322.152344 163.261719 322.625 167.429688 323.011719 C 171.941406 323.441406 176.324219 323.65625 180.835938 323.699219 C 184.699219 323.742188 188.652344 324.257812 192.519531 324.300781 C 200.984375 324.429688 209.40625 324.171875 217.824219 323.355469 C 234.625 321.808594 251.25 318.242188 267.019531 312.269531 C 269.46875 311.324219 271.917969 310.378906 274.324219 309.304688 C 302.765625 297.019531 320.722656 274.460938 326.867188 244.039062 C 330.175781 227.625 329.832031 210.695312 328.886719 194.023438 C 328.027344 178.769531 326.09375 163.515625 322.183594 148.734375 C 322.140625 148.519531 322.054688 148.261719 321.96875 148.046875 C 347.320312 140.011719 359.820312 111.4375 345.042969 88.0625 C 337.652344 76.332031 324.503906 68.855469 310.84375 67.050781 Z M 47.945312 97.257812 C 47.902344 85.355469 54.21875 74.828125 62.769531 67.007812 C 71.535156 58.972656 81.84375 54.160156 93.875 56.050781 C 105.003906 57.8125 113.640625 64.429688 120.082031 73.28125 C 114.753906 75.472656 109.601562 78.050781 104.660156 81.058594 C 95.421875 73.496094 80.597656 73.796875 72.4375 82.820312 C 64.53125 91.542969 66.894531 103.273438 75.273438 110.234375 C 72.179688 114.875 69.386719 119.6875 66.851562 124.671875 C 66.765625 124.628906 66.636719 124.542969 66.507812 124.5 C 55.078125 120.160156 47.945312 109.589844 47.945312 97.257812 Z M 325.621094 213.960938 C 325.019531 249.753906 314.066406 284 280.8125 301.828125 C 274.839844 305.007812 268.652344 307.800781 262.292969 310.121094 C 247.128906 315.707031 231.144531 318.84375 215.078125 320.175781 C 198.835938 321.507812 182.851562 320.691406 166.742188 318.671875 C 162.746094 318.15625 158.707031 317.640625 154.710938 317.039062 C 142.210938 315.191406 129.792969 312.828125 117.675781 309.304688 C 105.734375 305.824219 94.003906 301.183594 83.433594 294.527344 C 73.167969 288.082031 64.144531 279.617188 57.785156 269.261719 C 42.492188 244.339844 42.964844 211.039062 48.976562 183.453125 C 55.464844 153.761719 68.3125 120.417969 89.492188 97.988281 C 125.925781 59.402344 193.722656 58.457031 240.511719 74.699219 C 269.8125 84.882812 296.75 101.425781 310.800781 130 C 323.300781 155.480469 326.09375 185.945312 325.621094 213.960938 Z M 320.851562 144.050781 C 319.734375 140.441406 318.488281 136.917969 317.074219 133.523438 C 317.113281 133.480469 317.199219 133.480469 317.242188 133.4375 C 327.082031 126.949219 329.832031 114.058594 322.785156 104.390625 C 316.34375 95.582031 302.292969 91.714844 293.398438 99.148438 C 288.800781 94.851562 283.6875 90.984375 278.105469 87.503906 C 285.75 77.191406 297.308594 68.941406 310.542969 70.660156 C 322.484375 72.207031 334.042969 78.4375 341.046875 88.40625 C 355.351562 108.945312 345.6875 138.25 320.851562 144.050781 Z M 196.601562 190.714844 C 196.945312 199.78125 186.71875 202.273438 179.246094 201.671875 C 178.257812 207.386719 176.496094 212.886719 175.378906 218.558594 C 174.132812 224.746094 173.746094 231.105469 172.886719 237.335938 C 174.175781 237.207031 175.59375 236.648438 177.097656 235.617188 C 181.652344 232.480469 185.515625 228.011719 189.253906 223.929688 C 190.285156 222.8125 192.089844 224.53125 191.1875 225.691406 C 186.933594 231.449219 179.589844 240.773438 171.640625 241.160156 C 163.820312 241.546875 159.394531 230.246094 155.871094 224.746094 C 154.582031 222.726562 158.148438 220.921875 159.308594 223.113281 C 161.585938 227.625 164.894531 235.015625 169.835938 236.90625 C 170.523438 230.546875 171.984375 224.445312 173.058594 218.128906 C 174.046875 212.414062 174.605469 206.785156 176.324219 201.242188 C 170.351562 200.640625 164.378906 196.515625 163.304688 190.542969 C 161.84375 182.121094 170.179688 178.125 177.269531 177.78125 C 185.257812 177.394531 196.257812 181.21875 196.601562 190.714844 Z M 113.039062 177.523438 C 104.875 177.394531 101.566406 167.554688 101.265625 160.765625 C 101.136719 157.585938 105.519531 157.457031 105.5625 160.59375 C 105.648438 165.535156 107.152344 175.246094 114.066406 174.386719 C 119.738281 173.699219 122.660156 167.898438 123.734375 162.914062 C 124.121094 161.238281 126.484375 161.796875 126.054688 163.429688 C 124.378906 169.960938 121.027344 177.609375 113.039062 177.523438 Z M 278.234375 170.820312 C 277.117188 178.210938 271.875 189.082031 262.894531 188.609375 C 253.484375 188.136719 252.539062 175.117188 253.484375 168.15625 C 253.828125 165.707031 257.652344 166.050781 257.308594 168.5 C 256.578125 173.527344 256.019531 185.945312 263.96875 185.042969 C 270.199219 184.355469 274.023438 175.847656 275.097656 170.519531 C 275.527344 168.585938 278.535156 168.800781 278.234375 170.820312 Z M 208.332031 173.054688 C 188.050781 160.679688 156.515625 161.539062 138.945312 178.46875 C 122.832031 193.980469 118.320312 222.382812 120.855469 243.695312 C 122.53125 257.746094 128.804688 270.9375 141.523438 277.941406 C 147.625 281.292969 154.324219 283.570312 161.15625 284.859375 C 164.59375 285.503906 168.117188 285.933594 171.640625 286.0625 C 178.859375 286.363281 186.117188 286.75 193.164062 284.945312 C 198.835938 283.484375 204.164062 280.734375 208.675781 276.996094 C 218.039062 269.261719 223.753906 257.832031 226.675781 246.230469 C 227.019531 244.941406 227.320312 243.609375 227.578125 242.320312 C 232.476562 218.085938 231.789062 187.40625 208.332031 173.054688 Z M 225.257812 228.957031 C 224.269531 242.0625 221.777344 255.511719 213.917969 266.382812 C 213.402344 267.070312 212.886719 267.800781 212.328125 268.445312 C 203.648438 279.101562 190.070312 283.398438 176.667969 283.269531 C 175.164062 283.269531 173.617188 282.96875 172.113281 282.796875 C 169.148438 282.453125 166.183594 282.066406 163.21875 281.507812 C 157.632812 280.519531 152.046875 279.058594 146.851562 276.695312 C 135.851562 271.667969 128.589844 262.386719 125.582031 250.742188 C 120.8125 232.007812 124.164062 206.398438 134.21875 189.726562 C 146.894531 168.757812 175.378906 163.558594 197.332031 171.378906 C 222.765625 180.488281 227.0625 204.980469 225.257812 228.957031 Z M 225.257812 228.957031 " fill-opacity="1" fill-rule="nonzero"/></g><path fill="#fbc9bc" d="M 112.351562 211.339844 C 111.148438 224.273438 97.484375 233.554688 81.800781 232.09375 C 66.164062 230.632812 54.433594 218.945312 55.679688 206.011719 C 56.925781 193.078125 70.546875 183.796875 86.226562 185.257812 C 101.867188 186.71875 113.554688 198.40625 112.351562 211.339844 Z M 277.847656 209.664062 C 262.207031 208.203125 248.546875 217.484375 247.300781 230.417969 C 246.097656 243.351562 257.78125 255.039062 273.421875 256.5 C 289.058594 257.960938 302.722656 248.679688 303.96875 235.746094 C 305.171875 222.8125 293.484375 211.125 277.847656 209.664062 Z M 277.847656 209.664062 " fill-opacity="1" fill-rule="nonzero"/></svg>