<svg xmlns="http://www.w3.org/2000/svg" xmlns:xlink="http://www.w3.org/1999/xlink" width="139" zoomAndPan="magnify" viewBox="0 0 104.25 32.249999" height="43" preserveAspectRatio="xMidYMid meet" version="1.0"><defs><g/><clipPath id="c1fda10505"><path d="M 11.035156 0 L 27.894531 0 L 27.894531 31.515625 L 11.035156 31.515625 Z M 11.035156 0 " clip-rule="nonzero"/></clipPath></defs><g clip-path="url(#c1fda10505)"><path fill="#ffffff" d="M 27.492188 21.988281 C 27.320312 20.59375 26.867188 19.28125 26.222656 18.035156 C 26.136719 17.867188 26.042969 17.699219 25.953125 17.527344 C 26.035156 17.433594 26.113281 17.347656 26.1875 17.265625 C 26.394531 17.046875 26.472656 16.78125 26.460938 16.496094 C 26.425781 15.695312 26.242188 14.933594 25.804688 14.253906 C 25.765625 14.191406 25.738281 14.132812 25.738281 14.058594 C 25.746094 13.753906 25.730469 13.449219 25.714844 13.144531 C 25.664062 12.144531 25.480469 11.175781 25.148438 10.234375 C 25.117188 10.140625 25.058594 10.050781 25.070312 9.933594 C 25.144531 9.898438 25.21875 9.867188 25.292969 9.832031 C 25.933594 9.488281 26.328125 8.960938 26.386719 8.234375 C 26.449219 7.441406 26.097656 6.824219 25.429688 6.40625 C 24.761719 5.988281 24.054688 5.945312 23.367188 6.335938 C 23.144531 6.464844 23.074219 6.511719 22.851562 6.40625 C 22.773438 6.375 22.679688 6.339844 22.667969 6.332031 C 22.609375 6.3125 22.582031 6.253906 22.578125 6.144531 C 22.5625 5.777344 22.453125 5.433594 22.304688 5.097656 C 21.957031 4.324219 21.445312 3.660156 20.871094 3.039062 C 20.820312 2.984375 20.738281 2.945312 20.734375 2.84375 C 20.957031 2.8125 21.175781 2.820312 21.382812 2.757812 C 21.578125 2.695312 21.628906 2.582031 21.546875 2.394531 C 21.535156 2.359375 21.5 2.332031 21.523438 2.28125 C 21.625 2.242188 21.730469 2.203125 21.832031 2.15625 C 21.949219 2.109375 22.058594 2.039062 22.066406 1.902344 C 22.074219 1.761719 21.964844 1.675781 21.851562 1.613281 C 21.75 1.554688 21.644531 1.511719 21.519531 1.449219 C 21.664062 1.347656 21.789062 1.261719 21.90625 1.167969 C 22 1.09375 22.074219 0.996094 22.03125 0.871094 C 21.996094 0.761719 21.886719 0.742188 21.785156 0.71875 C 21.636719 0.679688 21.484375 0.679688 21.332031 0.679688 C 21.214844 0.679688 21.101562 0.679688 20.964844 0.679688 C 21.023438 0.59375 21.074219 0.535156 21.109375 0.46875 C 21.167969 0.363281 21.242188 0.25 21.179688 0.128906 C 21.109375 0 20.972656 0.0273438 20.851562 0.03125 C 20.796875 0.03125 20.738281 0.0429688 20.683594 0.0546875 C 20.359375 0.117188 20.109375 0.304688 19.894531 0.539062 C 19.851562 0.527344 19.835938 0.5 19.820312 0.472656 C 19.75 0.367188 19.695312 0.226562 19.542969 0.246094 C 19.390625 0.265625 19.34375 0.410156 19.289062 0.53125 C 19.210938 0.699219 19.191406 0.882812 19.171875 1.0625 C 18.863281 0.996094 18.753906 1.082031 18.730469 1.40625 C 18.707031 1.6875 18.769531 1.949219 18.925781 2.183594 C 18.980469 2.261719 19.03125 2.335938 19.089844 2.417969 C 19.0625 2.441406 19.042969 2.460938 19.023438 2.472656 C 18.601562 2.746094 18.199219 3.046875 17.832031 3.394531 C 17.105469 4.085938 16.511719 4.859375 16.316406 5.875 C 16.308594 5.933594 16.28125 5.984375 16.222656 6.007812 C 15.976562 6.113281 15.757812 6.265625 15.558594 6.46875 C 15.070312 6.117188 14.535156 6.015625 13.960938 6.144531 C 13.390625 6.273438 12.929688 6.574219 12.601562 7.0625 C 12.332031 7.460938 12.25 7.910156 12.324219 8.375 C 12.453125 9.179688 12.988281 9.660156 13.703125 9.96875 C 13.683594 10.03125 13.671875 10.066406 13.660156 10.101562 C 13.410156 10.722656 13.226562 11.359375 13.105469 12.019531 C 12.988281 12.652344 12.949219 13.292969 12.941406 13.9375 C 12.941406 14.050781 12.9375 14.15625 12.851562 14.253906 C 12.496094 14.652344 12.277344 15.125 12.167969 15.644531 C 12.023438 16.347656 11.96875 17.039062 12.578125 17.589844 C 12.582031 17.589844 12.582031 17.601562 12.585938 17.632812 C 12.417969 17.9375 12.25 18.265625 12.101562 18.601562 C 11.460938 20.054688 11.042969 21.554688 11.089844 23.160156 C 11.105469 23.695312 11.21875 24.207031 11.480469 24.679688 C 11.53125 24.765625 11.550781 24.851562 11.558594 24.949219 C 11.652344 26.375 11.9375 27.757812 12.503906 29.074219 C 12.796875 29.746094 13.121094 30.398438 13.625 30.945312 C 13.867188 31.207031 14.164062 31.371094 14.519531 31.417969 C 14.9375 31.472656 15.355469 31.46875 15.777344 31.453125 C 16.785156 31.414062 17.457031 30.894531 17.765625 29.9375 C 17.78125 29.882812 17.785156 29.824219 17.851562 29.769531 C 18.855469 30.054688 19.878906 30.050781 20.90625 29.769531 C 20.9375 29.871094 20.960938 29.949219 20.988281 30.027344 C 21.238281 30.734375 21.691406 31.242188 22.445312 31.394531 C 23.054688 31.515625 23.675781 31.496094 24.289062 31.394531 C 24.753906 31.316406 25.066406 31 25.316406 30.628906 C 26.382812 29.039062 26.902344 27.261719 27.085938 25.371094 C 27.117188 25.019531 27.148438 24.679688 27.292969 24.339844 C 27.613281 23.585938 27.589844 22.785156 27.492188 21.988281 Z M 25.574219 14.621094 C 25.785156 14.972656 25.90625 15.335938 25.992188 15.714844 C 26.058594 15.992188 26.074219 16.277344 26.074219 16.566406 C 26.070312 16.765625 25.988281 16.914062 25.828125 17.074219 C 25.742188 16.65625 25.648438 15.683594 25.3125 14.894531 C 25.402344 14.808594 25.488281 14.71875 25.574219 14.621094 Z M 22.722656 16.316406 C 22.988281 16.21875 23.25 16.125 23.527344 16.023438 C 23.628906 16.28125 23.644531 16.554688 23.6875 16.820312 C 23.765625 17.316406 23.804688 17.816406 23.8125 18.320312 C 23.816406 18.449219 23.808594 18.476562 23.808594 18.476562 C 23.574219 18.589844 23.210938 18.742188 22.929688 18.8125 C 22.960938 17.957031 22.871094 17.140625 22.722656 16.316406 Z M 21.792969 16.542969 C 22.078125 16.476562 22.339844 16.414062 22.621094 16.347656 C 22.746094 17.140625 22.835938 17.902344 22.820312 18.675781 C 22.820312 18.8125 22.816406 18.84375 22.816406 18.84375 C 22.566406 18.925781 22.164062 19.058594 21.882812 19.097656 C 21.921875 18.238281 21.925781 17.390625 21.792969 16.542969 Z M 20.777344 16.695312 C 21.074219 16.652344 21.359375 16.609375 21.675781 16.5625 C 21.804688 17.414062 21.820312 18.253906 21.75 19.121094 C 21.429688 19.210938 21.125 19.242188 20.78125 19.28125 C 20.867188 18.417969 20.863281 17.566406 20.777344 16.695312 Z M 23.636719 15.976562 C 23.90625 15.851562 24.125 15.742188 24.378906 15.589844 C 24.472656 15.925781 24.734375 17.128906 24.769531 17.671875 C 24.777344 17.800781 24.792969 17.941406 24.792969 17.941406 C 24.578125 18.089844 24.203125 18.339844 23.921875 18.433594 C 23.921875 17.59375 23.828125 16.785156 23.636719 15.976562 Z M 24.460938 15.539062 C 24.738281 15.371094 24.996094 15.179688 25.238281 14.960938 C 25.269531 15.089844 25.375 15.324219 25.507812 15.9375 C 25.589844 16.308594 25.65625 16.695312 25.707031 17.074219 C 25.71875 17.140625 25.722656 17.167969 25.722656 17.167969 C 25.503906 17.425781 25.203125 17.679688 24.910156 17.882812 C 24.851562 17.21875 24.664062 16.195312 24.460938 15.539062 Z M 25.207031 6.703125 C 25.742188 7.003906 26.089844 7.65625 26.023438 8.199219 C 25.941406 8.847656 25.488281 9.417969 24.890625 9.589844 C 24.734375 9.269531 24.574219 8.960938 24.378906 8.652344 C 24.597656 8.5625 24.769531 8.445312 24.824219 8.226562 C 24.859375 8.082031 24.84375 7.9375 24.765625 7.804688 C 24.59375 7.523438 24.292969 7.472656 23.882812 7.679688 C 23.820312 7.324219 23.691406 7 23.417969 6.730469 C 24.027344 6.363281 24.617188 6.375 25.207031 6.703125 Z M 23.171875 7.066406 C 23.449219 7.339844 23.535156 7.671875 23.511719 8.050781 C 23.382812 8.066406 23.28125 8.050781 23.171875 8.023438 C 23.183594 7.6875 23.195312 7.390625 23.171875 7.066406 Z M 22.875 6.828125 C 22.957031 6.867188 23.023438 6.917969 23.039062 7.019531 C 23.070312 7.191406 23.109375 7.648438 23.078125 8 C 22.8125 7.941406 22.566406 7.886719 22.3125 7.832031 C 22.289062 7.453125 22.292969 7.09375 22.148438 6.75 C 22.128906 7.09375 22.203125 7.433594 22.167969 7.800781 C 21.894531 7.761719 21.628906 7.722656 21.363281 7.6875 C 21.335938 7.273438 21.347656 6.898438 21.210938 6.535156 C 21.179688 6.902344 21.25 7.273438 21.207031 7.664062 C 20.933594 7.636719 20.667969 7.609375 20.378906 7.582031 C 20.375 7.140625 20.429688 6.632812 20.269531 6.175781 L 20.269531 7.570312 C 19.929688 7.5625 19.65625 7.53125 19.347656 7.511719 C 19.378906 7.128906 19.417969 6.679688 19.394531 6.269531 C 19.25 6.664062 19.273438 7.085938 19.21875 7.519531 C 18.625 7.507812 18.03125 7.539062 17.441406 7.582031 C 17.460938 7.191406 17.550781 6.417969 17.722656 6.101562 C 18.199219 6.046875 18.683594 6.03125 19.164062 6.058594 C 20.078125 6.109375 20.984375 6.226562 21.871094 6.464844 C 22.214844 6.558594 22.554688 6.667969 22.875 6.828125 Z M 17.304688 7.589844 C 17.019531 7.632812 16.785156 7.648438 16.496094 7.707031 C 16.527344 7.175781 16.664062 6.691406 16.894531 6.214844 C 17.125 6.175781 17.332031 6.132812 17.59375 6.109375 C 17.433594 6.585938 17.332031 7.09375 17.304688 7.589844 Z M 19.0625 1.441406 C 19.277344 1.492188 19.34375 1.710938 19.542969 1.761719 C 19.675781 1.703125 19.636719 1.613281 19.597656 1.523438 C 19.488281 1.273438 19.496094 1.019531 19.558594 0.742188 C 19.714844 0.863281 19.6875 1.078125 19.886719 1.175781 C 20.113281 0.859375 20.316406 0.5 20.777344 0.382812 C 20.667969 0.585938 20.535156 0.714844 20.425781 0.859375 C 20.378906 0.921875 20.304688 0.988281 20.371094 1.078125 C 20.429688 1.15625 20.507812 1.148438 20.59375 1.136719 C 20.859375 1.089844 21.121094 1.054688 21.386719 1.019531 C 21.425781 1.015625 21.472656 0.992188 21.515625 1.046875 C 21.328125 1.265625 20.96875 1.296875 20.851562 1.621094 C 21.113281 1.726562 21.375 1.726562 21.621094 1.851562 C 21.488281 1.953125 21.34375 1.9375 21.214844 1.953125 C 21.125 1.964844 21.039062 1.964844 20.949219 1.972656 C 20.875 1.980469 20.785156 1.957031 20.753906 2.054688 C 20.722656 2.164062 20.8125 2.195312 20.878906 2.242188 C 20.960938 2.300781 21.0625 2.328125 21.136719 2.441406 C 20.785156 2.519531 20.472656 2.496094 20.152344 2.421875 C 19.878906 2.28125 19.707031 2.132812 19.566406 2.097656 C 19.53125 2.128906 19.480469 2.164062 19.425781 2.207031 C 19.164062 2 19.070312 1.78125 19.0625 1.441406 Z M 16.988281 5.078125 C 17.5 4.125 18.285156 3.445312 19.15625 2.835938 C 19.621094 2.511719 19.832031 2.613281 20.164062 2.910156 C 21.019531 3.683594 21.738281 4.554688 22.105469 5.671875 C 22.15625 5.816406 22.191406 5.960938 22.199219 6.15625 C 20.378906 5.691406 18.566406 5.515625 16.707031 5.851562 C 16.757812 5.554688 16.859375 5.308594 16.988281 5.078125 Z M 15.882812 6.683594 C 15.8125 7.015625 15.660156 7.332031 15.683594 7.730469 C 15.753906 7.554688 15.777344 7.503906 15.792969 7.414062 C 15.832031 7.207031 15.902344 7.007812 15.960938 6.808594 C 16.042969 6.527344 16.234375 6.378906 16.503906 6.308594 C 16.578125 6.289062 16.652344 6.269531 16.769531 6.238281 C 16.539062 6.726562 16.4375 7.214844 16.375 7.726562 C 16.03125 7.777344 15.714844 7.882812 15.355469 7.90625 C 15.335938 7.398438 15.527344 7.007812 15.882812 6.683594 Z M 12.6875 8.3125 C 12.574219 7.679688 12.914062 7.046875 13.558594 6.691406 C 14.140625 6.371094 14.863281 6.394531 15.28125 6.757812 C 15.101562 7.050781 15.003906 7.382812 14.949219 7.730469 C 14.46875 7.488281 14.117188 7.550781 13.949219 7.902344 C 13.789062 8.230469 13.9375 8.539062 14.363281 8.726562 C 14.195312 9.023438 14.035156 9.308594 13.878906 9.589844 C 13.320312 9.488281 12.792969 8.914062 12.6875 8.3125 Z M 14.792969 8.765625 C 14.90625 8.59375 15.023438 8.429688 15.175781 8.285156 C 15.570312 8.332031 15.917969 8.191406 16.28125 8.128906 C 17.546875 7.914062 18.820312 7.867188 20.101562 7.949219 C 21.171875 8.015625 22.21875 8.191406 23.261719 8.429688 C 23.421875 8.464844 23.574219 8.464844 23.742188 8.417969 C 23.917969 8.617188 24.0625 8.839844 24.195312 9.070312 C 24.785156 10.09375 25.121094 11.199219 25.269531 12.367188 C 25.34375 12.925781 25.402344 13.488281 25.355469 14.058594 C 25.335938 14.289062 25.222656 14.464844 25.058594 14.613281 C 24.410156 15.21875 23.632812 15.609375 22.796875 15.882812 C 21.371094 16.34375 19.910156 16.4375 18.425781 16.316406 C 17.265625 16.222656 16.140625 15.980469 15.070312 15.503906 C 14.523438 15.261719 14.015625 14.949219 13.5625 14.546875 C 13.402344 14.402344 13.316406 14.25 13.3125 14.023438 C 13.289062 12.125 13.742188 10.359375 14.792969 8.765625 Z M 20.671875 19.300781 C 20.386719 19.351562 20.105469 19.347656 19.769531 19.359375 C 19.71875 18.464844 19.738281 17.625 19.824219 16.753906 C 20.105469 16.746094 20.367188 16.695312 20.660156 16.71875 C 20.746094 17.570312 20.742188 18.445312 20.671875 19.300781 Z M 19.65625 19.347656 C 19.335938 19.347656 19.039062 19.347656 18.703125 19.347656 C 18.644531 18.464844 18.664062 17.609375 18.875 16.757812 C 19.152344 16.757812 19.417969 16.757812 19.707031 16.757812 C 19.632812 17.625 19.609375 18.476562 19.65625 19.347656 Z M 18.585938 19.34375 C 18.265625 19.34375 17.996094 19.296875 17.695312 19.269531 C 17.617188 18.382812 17.6875 17.527344 17.9375 16.667969 C 18.210938 16.691406 18.472656 16.710938 18.761719 16.734375 C 18.570312 17.597656 18.488281 18.472656 18.585938 19.34375 Z M 17.566406 19.242188 C 17.253906 19.207031 16.96875 19.152344 16.664062 19.078125 C 16.609375 18.210938 16.664062 17.359375 16.980469 16.511719 C 17.253906 16.554688 17.523438 16.597656 17.824219 16.644531 C 17.570312 17.5 17.511719 18.359375 17.566406 19.242188 Z M 16.535156 19.042969 C 16.21875 19 15.945312 18.90625 15.644531 18.804688 C 15.625 17.941406 15.6875 17.097656 16.070312 16.285156 C 16.335938 16.351562 16.589844 16.414062 16.871094 16.484375 C 16.570312 17.324219 16.492188 18.167969 16.535156 19.042969 Z M 15.53125 18.757812 C 15.222656 18.691406 14.902344 18.550781 14.640625 18.429688 C 14.640625 18.429688 14.640625 18.375 14.640625 18.324219 C 14.644531 17.542969 14.71875 16.773438 15.085938 16.066406 C 15.097656 16.039062 15.121094 16.015625 15.152344 15.972656 C 15.421875 16.066406 15.675781 16.15625 15.957031 16.253906 C 15.597656 17.046875 15.503906 17.878906 15.53125 18.757812 Z M 14.53125 18.386719 C 14.242188 18.269531 13.949219 18.105469 13.707031 17.953125 C 13.707031 17.953125 13.707031 17.847656 13.707031 17.804688 C 13.699219 17.066406 13.804688 16.410156 14.171875 15.753906 C 14.210938 15.6875 14.238281 15.636719 14.300781 15.5625 C 14.523438 15.671875 14.78125 15.792969 15.03125 15.917969 C 14.628906 16.683594 14.515625 17.503906 14.53125 18.386719 Z M 13.609375 17.894531 C 13.332031 17.726562 13.078125 17.503906 12.867188 17.320312 C 12.867188 17.320312 12.867188 17.296875 12.867188 17.257812 C 12.886719 16.511719 13.019531 15.792969 13.445312 15.160156 C 13.464844 15.132812 13.5 15.074219 13.53125 15.058594 C 13.734375 15.199219 13.976562 15.34375 14.199219 15.496094 C 13.722656 16.21875 13.597656 17.019531 13.609375 17.894531 Z M 12.484375 16.773438 C 12.410156 16.425781 12.457031 16.074219 12.53125 15.734375 C 12.621094 15.328125 12.769531 14.9375 13.050781 14.585938 C 13.175781 14.730469 13.300781 14.835938 13.429688 14.984375 C 12.980469 15.597656 12.792969 16.363281 12.761719 17.203125 C 12.601562 17.066406 12.519531 16.933594 12.484375 16.773438 Z M 26.945312 24.214844 C 26.832031 24.496094 26.683594 24.761719 26.421875 24.945312 C 26.335938 24.839844 26.378906 24.71875 26.332031 24.625 C 26.300781 24.5625 26.269531 24.507812 26.195312 24.507812 C 26.128906 24.503906 26.101562 24.558594 26.074219 24.613281 C 26.027344 24.710938 26 24.8125 25.988281 24.921875 C 25.980469 24.996094 25.992188 25.09375 25.886719 25.125 C 25.789062 25.082031 25.8125 24.984375 25.789062 24.910156 C 25.765625 24.828125 25.753906 24.738281 25.722656 24.652344 C 25.699219 24.582031 25.671875 24.5 25.574219 24.503906 C 25.484375 24.511719 25.453125 24.59375 25.433594 24.667969 C 25.40625 24.757812 25.390625 24.851562 25.371094 24.957031 C 25.222656 24.914062 25.164062 24.792969 25.101562 24.683594 C 24.832031 24.210938 24.667969 23.695312 24.527344 23.171875 C 24.414062 22.753906 24.324219 22.332031 24.214844 21.914062 C 24.1875 21.804688 24.160156 21.691406 24.089844 21.601562 C 24.054688 21.558594 23.988281 21.546875 23.949219 21.582031 C 23.894531 21.625 23.894531 21.699219 23.890625 21.777344 C 23.878906 22.246094 24.007812 22.695312 24.121094 23.144531 C 24.25 23.65625 24.40625 24.160156 24.636719 24.636719 C 25.035156 25.449219 25.785156 25.695312 26.597656 25.285156 C 26.625 25.269531 26.71875 25.207031 26.761719 25.1875 C 26.726562 25.34375 26.695312 25.523438 26.679688 25.652344 C 26.464844 27.351562 25.976562 28.957031 25.019531 30.394531 C 24.875 30.609375 24.703125 30.804688 24.476562 30.941406 C 24.253906 30.613281 24.082031 30.589844 23.855469 30.855469 C 23.785156 30.640625 23.683594 30.46875 23.421875 30.484375 C 23.226562 30.492188 23.128906 30.609375 23.066406 30.800781 C 22.96875 30.613281 22.828125 30.519531 22.628906 30.570312 C 22.433594 30.621094 22.394531 30.78125 22.394531 30.957031 C 21.914062 30.917969 21.378906 30.285156 21.292969 29.644531 C 22.074219 29.335938 22.78125 28.921875 23.175781 28.121094 C 20.628906 30.121094 18.105469 30.132812 15.582031 28.074219 C 15.714844 28.488281 16.011719 28.769531 16.34375 29.027344 C 16.671875 29.28125 17.046875 29.460938 17.421875 29.621094 C 17.441406 30.152344 16.839844 30.90625 16.339844 30.960938 C 16.308594 30.761719 16.261719 30.570312 16.003906 30.558594 C 15.828125 30.550781 15.707031 30.617188 15.65625 30.835938 C 15.570312 30.59375 15.449219 30.445312 15.203125 30.484375 C 15.007812 30.515625 14.90625 30.640625 14.855469 30.839844 C 14.757812 30.734375 14.660156 30.652344 14.511719 30.675781 C 14.363281 30.699219 14.304688 30.8125 14.253906 30.949219 C 14.109375 30.878906 14 30.785156 13.902344 30.679688 C 13.519531 30.277344 13.261719 29.792969 13.027344 29.296875 C 12.457031 28.085938 12.113281 26.808594 11.988281 25.472656 C 11.984375 25.441406 11.96875 25.253906 11.964844 25.226562 C 12.03125 25.277344 12.082031 25.304688 12.128906 25.328125 C 12.714844 25.59375 13.644531 25.542969 14.027344 24.664062 C 14.410156 23.785156 14.699219 22.882812 14.785156 21.921875 C 14.792969 21.820312 14.820312 21.703125 14.753906 21.609375 C 14.71875 21.558594 14.648438 21.550781 14.605469 21.59375 C 14.539062 21.660156 14.523438 21.753906 14.5 21.839844 C 14.359375 22.339844 14.265625 22.851562 14.113281 23.351562 C 13.980469 23.789062 13.828125 24.222656 13.609375 24.625 C 13.535156 24.753906 13.46875 24.894531 13.308594 24.957031 C 13.25 24.808594 13.296875 24.621094 13.15625 24.515625 C 13.121094 24.492188 13.074219 24.492188 13.042969 24.519531 C 12.855469 24.667969 12.929688 24.957031 12.78125 25.144531 C 12.695312 25.054688 12.699219 24.96875 12.675781 24.894531 C 12.652344 24.800781 12.625 24.710938 12.59375 24.621094 C 12.574219 24.566406 12.542969 24.515625 12.472656 24.515625 C 12.394531 24.515625 12.363281 24.574219 12.332031 24.628906 C 12.277344 24.730469 12.289062 24.847656 12.253906 24.96875 C 12.066406 24.871094 11.960938 24.714844 11.859375 24.554688 C 11.558594 24.082031 11.472656 23.546875 11.460938 23.003906 C 11.4375 21.886719 11.679688 20.820312 12.039062 19.773438 C 12.238281 19.1875 12.488281 18.625 12.773438 18.078125 C 12.808594 18.011719 12.832031 17.933594 12.910156 17.886719 C 13.085938 18.007812 13.261719 18.132812 13.445312 18.246094 C 14.589844 18.945312 15.84375 19.339844 17.15625 19.570312 C 18.15625 19.742188 19.164062 19.792969 20.179688 19.71875 C 21.855469 19.601562 23.457031 19.222656 24.914062 18.347656 C 25.167969 18.195312 25.40625 18.011719 25.632812 17.816406 C 25.726562 17.867188 25.753906 17.957031 25.792969 18.03125 C 26.417969 19.214844 26.886719 20.449219 27.082031 21.78125 C 27.199219 22.601562 27.253906 23.421875 26.945312 24.214844 Z M 17.90625 13.339844 C 17.699219 12.949219 17.871094 12.492188 18.277344 12.300781 C 18.441406 12.222656 18.613281 12.183594 18.789062 12.164062 C 19.222656 12.121094 19.65625 12.105469 20.078125 12.21875 C 20.730469 12.390625 20.9375 12.980469 20.535156 13.519531 C 20.269531 13.875 19.917969 14.097656 19.445312 14.160156 C 19.445312 14.304688 19.4375 14.433594 19.445312 14.558594 C 19.457031 14.714844 19.554688 14.796875 19.707031 14.816406 C 19.855469 14.839844 19.902344 14.742188 19.9375 14.621094 C 19.960938 14.542969 19.972656 14.425781 20.101562 14.460938 C 20.222656 14.496094 20.210938 14.605469 20.199219 14.703125 C 20.15625 15.039062 19.761719 15.207031 19.445312 15.027344 C 19.402344 15 19.363281 14.964844 19.316406 14.929688 C 19.136719 15.046875 18.953125 15.152344 18.71875 15.070312 C 18.539062 15.007812 18.40625 14.851562 18.40625 14.660156 C 18.402344 14.539062 18.445312 14.445312 18.597656 14.480469 C 18.652344 14.523438 18.664062 14.585938 18.679688 14.648438 C 18.710938 14.765625 18.777344 14.839844 18.910156 14.816406 C 19.039062 14.796875 19.117188 14.722656 19.117188 14.585938 C 19.121094 14.453125 19.121094 14.320312 19.121094 14.171875 C 19.027344 14.148438 18.941406 14.132812 18.855469 14.109375 C 18.433594 13.988281 18.109375 13.730469 17.90625 13.339844 Z M 15.710938 12.03125 C 15.703125 11.992188 15.703125 11.953125 15.703125 11.933594 C 15.703125 11.667969 15.816406 11.492188 15.96875 11.5 C 16.109375 11.503906 16.234375 11.707031 16.226562 11.933594 C 16.222656 11.976562 16.210938 12.019531 16.203125 12.0625 C 16.164062 12.207031 16.113281 12.339844 15.929688 12.316406 C 15.765625 12.300781 15.730469 12.167969 15.710938 12.03125 Z M 22.597656 11.507812 C 22.742188 11.5 22.859375 11.660156 22.875 11.886719 C 22.878906 11.902344 22.878906 11.921875 22.875 11.941406 C 22.867188 12.164062 22.757812 12.316406 22.605469 12.320312 C 22.445312 12.324219 22.351562 12.1875 22.347656 11.945312 C 22.347656 11.925781 22.351562 11.90625 22.351562 11.886719 C 22.367188 11.660156 22.460938 11.515625 22.597656 11.507812 Z M 15.964844 10.578125 C 15.9375 10.371094 16.042969 10.246094 16.285156 10.203125 C 16.320312 10.433594 16.195312 10.574219 15.964844 10.578125 Z M 22.34375 10.207031 C 22.550781 10.234375 22.632812 10.316406 22.695312 10.550781 C 22.574219 10.574219 22.503906 10.546875 22.441406 10.492188 C 22.355469 10.421875 22.308594 10.363281 22.34375 10.207031 Z M 18.796875 3.402344 C 18.421875 3.941406 18.210938 4.550781 18.035156 5.175781 C 18.101562 4.503906 18.308594 3.890625 18.796875 3.402344 Z M 20.683594 4.625 C 20.679688 4.296875 20.621094 3.972656 20.617188 3.644531 C 20.835938 4.292969 20.828125 4.941406 20.652344 5.59375 C 20.628906 5.269531 20.691406 4.949219 20.683594 4.625 Z M 19.761719 5.285156 C 19.8125 4.675781 19.945312 4.078125 20.007812 3.472656 C 20.074219 4.097656 19.933594 4.695312 19.761719 5.285156 Z M 19.363281 3.449219 C 19.1875 4.019531 19.035156 4.59375 18.890625 5.171875 C 18.917969 4.5625 19.078125 3.988281 19.363281 3.449219 Z M 17.195312 5.375 C 17.1875 5.082031 17.269531 4.816406 17.425781 4.570312 C 17.355469 4.839844 17.285156 5.113281 17.195312 5.375 Z M 21.464844 5.84375 C 21.441406 5.554688 21.511719 5.269531 21.511719 4.984375 C 21.550781 5.273438 21.558594 5.5625 21.464844 5.84375 Z M 18.527344 6.183594 C 18.464844 6.570312 18.355469 7.074219 18.292969 7.457031 C 18.292969 7.457031 18.289062 7.242188 18.289062 7.167969 C 18.3125 6.480469 18.507812 6.179688 18.527344 6.183594 Z M 18.527344 6.183594 " fill-opacity="1" fill-rule="nonzero"/></g><g fill="#ffffff" fill-opacity="1"><g transform="translate(39.439185, 18.847518)"><g><path d="M 1.75 0.359375 C 1.601562 0.367188 1.476562 0.328125 1.375 0.234375 C 1.269531 0.148438 1.21875 0.03125 1.21875 -0.125 C 1.21875 -0.226562 1.21875 -0.328125 1.21875 -0.421875 C 1.226562 -0.523438 1.234375 -0.625 1.234375 -0.71875 C 1.253906 -1.019531 1.269531 -1.320312 1.28125 -1.625 C 1.289062 -1.9375 1.304688 -2.242188 1.328125 -2.546875 C 1.359375 -3.128906 1.398438 -3.695312 1.453125 -4.25 L 1.5 -4.75 C 1.519531 -4.945312 1.539062 -5.148438 1.5625 -5.359375 C 1.582031 -5.578125 1.613281 -5.789062 1.65625 -6 C 1.675781 -6.132812 1.695312 -6.265625 1.71875 -6.390625 C 1.75 -6.523438 1.765625 -6.664062 1.765625 -6.8125 C 1.773438 -6.945312 1.789062 -7.082031 1.8125 -7.21875 C 1.832031 -7.363281 1.859375 -7.503906 1.890625 -7.640625 C 1.910156 -7.765625 1.925781 -7.878906 1.9375 -7.984375 C 1.957031 -8.097656 1.972656 -8.21875 1.984375 -8.34375 C 2.015625 -8.59375 2.160156 -8.757812 2.421875 -8.84375 C 2.617188 -8.894531 2.816406 -8.835938 3.015625 -8.671875 C 3.128906 -8.554688 3.222656 -8.425781 3.296875 -8.28125 C 3.378906 -8.144531 3.453125 -8.003906 3.515625 -7.859375 C 3.628906 -7.648438 3.734375 -7.4375 3.828125 -7.21875 C 3.929688 -7.007812 4.03125 -6.800781 4.125 -6.59375 C 4.238281 -6.332031 4.351562 -6.078125 4.46875 -5.828125 C 4.59375 -5.578125 4.71875 -5.320312 4.84375 -5.0625 C 5 -4.757812 5.148438 -4.445312 5.296875 -4.125 C 5.441406 -3.800781 5.582031 -3.476562 5.71875 -3.15625 L 5.953125 -2.59375 C 6.003906 -2.476562 6.039062 -2.421875 6.0625 -2.421875 L 6.078125 -2.421875 C 6.160156 -2.566406 6.226562 -2.710938 6.28125 -2.859375 C 6.332031 -3.003906 6.378906 -3.144531 6.421875 -3.28125 L 6.53125 -3.5625 C 6.570312 -3.6875 6.617188 -3.8125 6.671875 -3.9375 C 6.722656 -4.070312 6.773438 -4.203125 6.828125 -4.328125 C 6.941406 -4.640625 7.054688 -4.953125 7.171875 -5.265625 C 7.296875 -5.578125 7.425781 -5.882812 7.5625 -6.1875 C 7.625 -6.351562 7.6875 -6.515625 7.75 -6.671875 C 7.820312 -6.835938 7.882812 -7 7.9375 -7.15625 L 8.34375 -8.140625 C 8.382812 -8.242188 8.429688 -8.347656 8.484375 -8.453125 C 8.535156 -8.554688 8.609375 -8.640625 8.703125 -8.703125 C 8.867188 -8.828125 9.035156 -8.863281 9.203125 -8.8125 C 9.367188 -8.769531 9.488281 -8.648438 9.5625 -8.453125 C 9.613281 -8.316406 9.648438 -8.175781 9.671875 -8.03125 C 9.703125 -7.882812 9.726562 -7.734375 9.75 -7.578125 C 9.757812 -7.515625 9.769531 -7.453125 9.78125 -7.390625 C 9.789062 -7.335938 9.800781 -7.285156 9.8125 -7.234375 C 9.832031 -7.085938 9.851562 -6.941406 9.875 -6.796875 C 9.90625 -6.648438 9.929688 -6.5 9.953125 -6.34375 L 10.1875 -4.875 C 10.207031 -4.6875 10.226562 -4.5 10.25 -4.3125 C 10.28125 -4.125 10.316406 -3.941406 10.359375 -3.765625 C 10.398438 -3.578125 10.425781 -3.378906 10.4375 -3.171875 C 10.457031 -2.972656 10.472656 -2.773438 10.484375 -2.578125 C 10.492188 -2.390625 10.503906 -2.207031 10.515625 -2.03125 C 10.535156 -1.851562 10.5625 -1.675781 10.59375 -1.5 C 10.601562 -1.351562 10.585938 -1.222656 10.546875 -1.109375 C 10.503906 -0.972656 10.4375 -0.863281 10.34375 -0.78125 C 10.25 -0.707031 10.140625 -0.675781 10.015625 -0.6875 C 9.898438 -0.6875 9.789062 -0.726562 9.6875 -0.8125 C 9.59375 -0.90625 9.535156 -1.015625 9.515625 -1.140625 C 9.460938 -1.460938 9.421875 -1.789062 9.390625 -2.125 C 9.367188 -2.457031 9.347656 -2.789062 9.328125 -3.125 C 9.296875 -3.5625 9.25 -3.976562 9.1875 -4.375 C 9.175781 -4.519531 9.15625 -4.664062 9.125 -4.8125 C 9.101562 -4.96875 9.078125 -5.117188 9.046875 -5.265625 L 8.921875 -6.140625 C 8.921875 -6.148438 8.921875 -6.15625 8.921875 -6.15625 C 8.910156 -6.195312 8.894531 -6.238281 8.875 -6.28125 C 8.851562 -6.320312 8.835938 -6.34375 8.828125 -6.34375 L 8.796875 -6.34375 C 8.710938 -6.25 8.644531 -6.140625 8.59375 -6.015625 C 8.550781 -5.898438 8.507812 -5.785156 8.46875 -5.671875 L 8.34375 -5.359375 C 8.132812 -4.847656 7.925781 -4.332031 7.71875 -3.8125 C 7.507812 -3.289062 7.304688 -2.769531 7.109375 -2.25 C 7.046875 -2.082031 6.992188 -1.929688 6.953125 -1.796875 C 6.898438 -1.660156 6.847656 -1.519531 6.796875 -1.375 C 6.742188 -1.238281 6.675781 -1.109375 6.59375 -0.984375 L 6.421875 -0.71875 C 6.265625 -0.5 6.085938 -0.398438 5.890625 -0.421875 C 5.648438 -0.472656 5.472656 -0.640625 5.359375 -0.921875 L 5.09375 -1.65625 C 5.0625 -1.769531 5.019531 -1.882812 4.96875 -2 C 4.925781 -2.125 4.882812 -2.25 4.84375 -2.375 C 4.71875 -2.75 4.578125 -3.113281 4.421875 -3.46875 C 4.273438 -3.820312 4.117188 -4.171875 3.953125 -4.515625 C 3.878906 -4.660156 3.804688 -4.804688 3.734375 -4.953125 C 3.671875 -5.109375 3.601562 -5.257812 3.53125 -5.40625 C 3.457031 -5.59375 3.378906 -5.773438 3.296875 -5.953125 C 3.210938 -6.140625 3.113281 -6.328125 3 -6.515625 C 2.945312 -6.628906 2.910156 -6.6875 2.890625 -6.6875 L 2.859375 -6.671875 C 2.796875 -6.378906 2.75 -6.09375 2.71875 -5.8125 C 2.6875 -5.539062 2.65625 -5.269531 2.625 -5 C 2.5625 -4.53125 2.515625 -4.0625 2.484375 -3.59375 C 2.460938 -3.132812 2.4375 -2.671875 2.40625 -2.203125 L 2.359375 -1.421875 C 2.359375 -1.316406 2.351562 -1.21875 2.34375 -1.125 C 2.34375 -1.03125 2.335938 -0.9375 2.328125 -0.84375 C 2.316406 -0.738281 2.3125 -0.640625 2.3125 -0.546875 C 2.3125 -0.453125 2.304688 -0.359375 2.296875 -0.265625 C 2.265625 0.117188 2.082031 0.328125 1.75 0.359375 Z M 1.75 0.359375 "/></g></g></g><g fill="#ffffff" fill-opacity="1"><g transform="translate(50.720181, 18.847518)"><g><path d="M 3.046875 -0.96875 C 2.867188 -0.863281 2.691406 -0.851562 2.515625 -0.9375 C 2.347656 -1.019531 2.25 -1.171875 2.21875 -1.390625 C 2.195312 -1.609375 2.1875 -1.828125 2.1875 -2.046875 C 2.195312 -2.273438 2.191406 -2.5 2.171875 -2.71875 C 2.128906 -3.207031 2.117188 -3.691406 2.140625 -4.171875 C 2.160156 -4.660156 2.179688 -5.144531 2.203125 -5.625 C 2.222656 -5.882812 2.238281 -6.132812 2.25 -6.375 C 2.269531 -6.625 2.285156 -6.867188 2.296875 -7.109375 C 2.285156 -7.242188 2.285156 -7.367188 2.296875 -7.484375 C 2.304688 -7.609375 2.332031 -7.734375 2.375 -7.859375 C 2.425781 -8.066406 2.546875 -8.203125 2.734375 -8.265625 C 2.847656 -8.296875 2.945312 -8.289062 3.03125 -8.25 C 3.125 -8.21875 3.203125 -8.164062 3.265625 -8.09375 C 3.410156 -7.945312 3.492188 -7.769531 3.515625 -7.5625 C 3.546875 -7.363281 3.507812 -7.171875 3.40625 -6.984375 C 3.394531 -6.972656 3.390625 -6.960938 3.390625 -6.953125 C 3.390625 -6.953125 3.382812 -6.945312 3.375 -6.9375 C 3.363281 -6.882812 3.351562 -6.835938 3.34375 -6.796875 C 3.34375 -6.765625 3.34375 -6.722656 3.34375 -6.671875 C 3.320312 -6.273438 3.296875 -5.867188 3.265625 -5.453125 C 3.242188 -5.046875 3.234375 -4.640625 3.234375 -4.234375 C 3.234375 -3.816406 3.25 -3.398438 3.28125 -2.984375 C 3.3125 -2.566406 3.335938 -2.148438 3.359375 -1.734375 C 3.367188 -1.578125 3.351562 -1.429688 3.3125 -1.296875 C 3.269531 -1.171875 3.179688 -1.0625 3.046875 -0.96875 Z M 3.046875 -0.96875 "/></g></g></g><g fill="#ffffff" fill-opacity="1"><g transform="translate(55.87441, 18.847518)"><g><path d="M 2.515625 -0.078125 C 2.003906 -0.0546875 1.722656 -0.289062 1.671875 -0.78125 C 1.640625 -0.957031 1.625 -1.148438 1.625 -1.359375 C 1.613281 -1.703125 1.601562 -2.039062 1.59375 -2.375 C 1.582031 -2.707031 1.570312 -3.039062 1.5625 -3.375 C 1.550781 -3.539062 1.546875 -3.707031 1.546875 -3.875 C 1.546875 -4.050781 1.539062 -4.21875 1.53125 -4.375 C 1.5 -4.894531 1.492188 -5.492188 1.515625 -6.171875 C 1.535156 -6.847656 1.566406 -7.488281 1.609375 -8.09375 C 1.628906 -8.28125 1.695312 -8.421875 1.8125 -8.515625 C 1.9375 -8.617188 2.078125 -8.664062 2.234375 -8.65625 C 2.535156 -8.625 2.675781 -8.398438 2.65625 -7.984375 C 2.644531 -7.710938 2.632812 -7.414062 2.625 -7.09375 C 2.625 -6.769531 2.617188 -6.472656 2.609375 -6.203125 C 2.609375 -5.941406 2.601562 -5.75 2.59375 -5.625 C 2.582031 -5.1875 2.578125 -4.804688 2.578125 -4.484375 C 2.585938 -4.160156 2.597656 -3.851562 2.609375 -3.5625 C 2.609375 -3.46875 2.609375 -3.367188 2.609375 -3.265625 C 2.617188 -3.171875 2.625 -3.070312 2.625 -2.96875 C 2.632812 -2.6875 2.640625 -2.410156 2.640625 -2.140625 C 2.648438 -1.867188 2.660156 -1.597656 2.671875 -1.328125 C 2.691406 -1.191406 2.765625 -1.125 2.890625 -1.125 C 3.347656 -1.113281 3.78125 -1.101562 4.1875 -1.09375 C 4.601562 -1.09375 5.039062 -1.125 5.5 -1.1875 C 5.613281 -1.195312 5.679688 -1.273438 5.703125 -1.421875 C 5.710938 -1.628906 5.726562 -1.957031 5.75 -2.40625 C 5.769531 -2.851562 5.785156 -3.367188 5.796875 -3.953125 C 5.816406 -4.546875 5.832031 -5.164062 5.84375 -5.8125 C 5.863281 -6.457031 5.878906 -7.078125 5.890625 -7.671875 C 5.890625 -8.078125 6.054688 -8.304688 6.390625 -8.359375 C 6.546875 -8.367188 6.675781 -8.320312 6.78125 -8.21875 C 6.882812 -8.113281 6.941406 -7.960938 6.953125 -7.765625 C 6.960938 -7.640625 6.960938 -7.507812 6.953125 -7.375 C 6.941406 -7.238281 6.9375 -7.101562 6.9375 -6.96875 C 6.925781 -6.488281 6.914062 -5.972656 6.90625 -5.421875 C 6.894531 -4.878906 6.878906 -4.34375 6.859375 -3.8125 C 6.847656 -3.28125 6.832031 -2.789062 6.8125 -2.34375 C 6.800781 -2.195312 6.796875 -2.050781 6.796875 -1.90625 C 6.796875 -1.757812 6.796875 -1.609375 6.796875 -1.453125 C 6.796875 -1.316406 6.867188 -1.238281 7.015625 -1.21875 C 7.523438 -1.195312 7.972656 -1.203125 8.359375 -1.234375 C 8.742188 -1.265625 9.144531 -1.300781 9.5625 -1.34375 C 9.6875 -1.351562 9.757812 -1.429688 9.78125 -1.578125 C 9.789062 -1.835938 9.796875 -2.101562 9.796875 -2.375 C 9.804688 -2.65625 9.816406 -2.9375 9.828125 -3.21875 C 9.828125 -3.320312 9.828125 -3.421875 9.828125 -3.515625 C 9.835938 -3.617188 9.84375 -3.71875 9.84375 -3.8125 C 9.851562 -4.113281 9.859375 -4.421875 9.859375 -4.734375 C 9.867188 -5.054688 9.867188 -5.4375 9.859375 -5.875 C 9.847656 -6.289062 9.835938 -6.707031 9.828125 -7.125 C 9.828125 -7.539062 9.816406 -7.960938 9.796875 -8.390625 C 9.773438 -8.785156 9.910156 -9.015625 10.203125 -9.078125 C 10.378906 -9.117188 10.523438 -9.085938 10.640625 -8.984375 C 10.765625 -8.878906 10.832031 -8.738281 10.84375 -8.5625 C 10.875 -8.164062 10.898438 -7.738281 10.921875 -7.28125 C 10.941406 -6.820312 10.953125 -6.367188 10.953125 -5.921875 C 10.953125 -5.472656 10.941406 -5.070312 10.921875 -4.71875 C 10.910156 -4.550781 10.90625 -4.378906 10.90625 -4.203125 C 10.90625 -4.035156 10.898438 -3.867188 10.890625 -3.703125 C 10.878906 -3.367188 10.867188 -3.035156 10.859375 -2.703125 C 10.859375 -2.367188 10.847656 -2.03125 10.828125 -1.6875 C 10.828125 -1.46875 10.8125 -1.269531 10.78125 -1.09375 C 10.726562 -0.613281 10.445312 -0.359375 9.9375 -0.328125 C 9.875 -0.328125 9.691406 -0.316406 9.390625 -0.296875 C 9.085938 -0.285156 8.734375 -0.269531 8.328125 -0.25 C 7.929688 -0.238281 7.539062 -0.226562 7.15625 -0.21875 C 6.769531 -0.21875 6.457031 -0.222656 6.21875 -0.234375 C 6.164062 -0.242188 6.113281 -0.242188 6.0625 -0.234375 C 6.019531 -0.234375 5.957031 -0.226562 5.875 -0.21875 C 5.664062 -0.1875 5.382812 -0.160156 5.03125 -0.140625 C 4.6875 -0.128906 4.332031 -0.117188 3.96875 -0.109375 C 3.613281 -0.0976562 3.296875 -0.0859375 3.015625 -0.078125 C 2.742188 -0.078125 2.578125 -0.078125 2.515625 -0.078125 Z M 2.515625 -0.078125 "/></g></g></g><g fill="#ffffff" fill-opacity="1"><g transform="translate(67.773969, 18.847518)"><g><path d="M 2.109375 -0.03125 C 1.828125 -0.0078125 1.660156 -0.140625 1.609375 -0.421875 C 1.554688 -0.648438 1.53125 -0.878906 1.53125 -1.109375 C 1.53125 -1.347656 1.523438 -1.582031 1.515625 -1.8125 C 1.503906 -2.175781 1.492188 -2.535156 1.484375 -2.890625 C 1.484375 -3.253906 1.488281 -3.613281 1.5 -3.96875 C 1.507812 -4.363281 1.515625 -4.804688 1.515625 -5.296875 C 1.523438 -5.796875 1.539062 -6.289062 1.5625 -6.78125 C 1.582031 -7.269531 1.609375 -7.710938 1.640625 -8.109375 C 1.648438 -8.179688 1.644531 -8.253906 1.625 -8.328125 C 1.613281 -8.410156 1.601562 -8.492188 1.59375 -8.578125 C 1.582031 -8.742188 1.617188 -8.882812 1.703125 -9 C 1.796875 -9.113281 1.914062 -9.179688 2.0625 -9.203125 C 2.207031 -9.222656 2.34375 -9.191406 2.46875 -9.109375 C 2.59375 -9.023438 2.671875 -8.898438 2.703125 -8.734375 C 2.710938 -8.609375 2.71875 -8.484375 2.71875 -8.359375 C 2.71875 -8.234375 2.71875 -8.113281 2.71875 -8 C 2.707031 -7.632812 2.6875 -7.226562 2.65625 -6.78125 C 2.632812 -6.332031 2.613281 -5.878906 2.59375 -5.421875 C 2.582031 -4.960938 2.582031 -4.53125 2.59375 -4.125 C 2.59375 -4.03125 2.617188 -3.96875 2.671875 -3.9375 C 2.734375 -3.914062 2.800781 -3.9375 2.875 -4 C 2.988281 -4.09375 3.097656 -4.1875 3.203125 -4.28125 C 3.316406 -4.375 3.425781 -4.460938 3.53125 -4.546875 C 3.96875 -4.878906 4.429688 -5.234375 4.921875 -5.609375 C 5.421875 -5.992188 5.894531 -6.335938 6.34375 -6.640625 C 6.625 -6.835938 6.894531 -7.039062 7.15625 -7.25 C 7.425781 -7.46875 7.695312 -7.679688 7.96875 -7.890625 C 8.019531 -7.921875 8.070312 -7.957031 8.125 -8 C 8.175781 -8.039062 8.238281 -8.066406 8.3125 -8.078125 C 8.425781 -8.117188 8.539062 -8.113281 8.65625 -8.0625 C 8.769531 -8.007812 8.859375 -7.929688 8.921875 -7.828125 C 9.046875 -7.585938 8.992188 -7.367188 8.765625 -7.171875 C 8.503906 -6.960938 8.238281 -6.753906 7.96875 -6.546875 C 7.707031 -6.347656 7.4375 -6.148438 7.15625 -5.953125 C 6.882812 -5.753906 6.578125 -5.539062 6.234375 -5.3125 C 5.890625 -5.082031 5.570312 -4.851562 5.28125 -4.625 C 5.15625 -4.550781 5.140625 -4.445312 5.234375 -4.3125 C 5.335938 -4.21875 5.429688 -4.113281 5.515625 -4 C 5.609375 -3.894531 5.703125 -3.789062 5.796875 -3.6875 C 6.140625 -3.289062 6.503906 -2.914062 6.890625 -2.5625 C 7.285156 -2.21875 7.675781 -1.867188 8.0625 -1.515625 C 8.125 -1.453125 8.179688 -1.382812 8.234375 -1.3125 C 8.296875 -1.238281 8.335938 -1.15625 8.359375 -1.0625 C 8.429688 -0.800781 8.363281 -0.597656 8.15625 -0.453125 C 7.925781 -0.285156 7.71875 -0.289062 7.53125 -0.46875 C 7.34375 -0.644531 7.15625 -0.820312 6.96875 -1 C 6.78125 -1.1875 6.59375 -1.367188 6.40625 -1.546875 C 6.082031 -1.859375 5.769531 -2.175781 5.46875 -2.5 C 5.175781 -2.820312 4.882812 -3.15625 4.59375 -3.5 C 4.570312 -3.53125 4.546875 -3.5625 4.515625 -3.59375 C 4.492188 -3.632812 4.460938 -3.671875 4.421875 -3.703125 C 4.316406 -3.804688 4.210938 -3.804688 4.109375 -3.703125 C 3.890625 -3.503906 3.660156 -3.328125 3.421875 -3.171875 C 3.179688 -3.023438 2.945312 -2.851562 2.71875 -2.65625 C 2.644531 -2.582031 2.609375 -2.492188 2.609375 -2.390625 L 2.609375 -0.875 C 2.609375 -0.800781 2.609375 -0.726562 2.609375 -0.65625 C 2.609375 -0.582031 2.601562 -0.507812 2.59375 -0.4375 C 2.570312 -0.3125 2.515625 -0.210938 2.421875 -0.140625 C 2.328125 -0.0664062 2.222656 -0.03125 2.109375 -0.03125 Z M 2.109375 -0.03125 "/></g></g></g><g fill="#ffffff" fill-opacity="1"><g transform="translate(76.727969, 18.847518)"><g><path d="M 1.109375 0.390625 C 0.960938 0.398438 0.835938 0.363281 0.734375 0.28125 C 0.640625 0.207031 0.582031 0.109375 0.5625 -0.015625 C 0.5625 -0.0664062 0.570312 -0.128906 0.59375 -0.203125 C 0.625 -0.296875 0.664062 -0.453125 0.71875 -0.671875 C 0.769531 -0.890625 0.820312 -1.117188 0.875 -1.359375 C 0.9375 -1.597656 0.988281 -1.804688 1.03125 -1.984375 C 1.070312 -2.160156 1.085938 -2.253906 1.078125 -2.265625 C 1.003906 -2.359375 0.957031 -2.445312 0.9375 -2.53125 C 0.925781 -2.625 0.914062 -2.703125 0.90625 -2.765625 C 0.90625 -2.910156 0.988281 -3.039062 1.15625 -3.15625 C 1.207031 -3.195312 1.25 -3.234375 1.28125 -3.265625 C 1.3125 -3.296875 1.332031 -3.34375 1.34375 -3.40625 C 1.5625 -4.25 1.753906 -4.988281 1.921875 -5.625 C 2.085938 -6.257812 2.257812 -6.820312 2.4375 -7.3125 C 2.625 -7.800781 2.84375 -8.242188 3.09375 -8.640625 C 3.375 -9.085938 3.71875 -9.3125 4.125 -9.3125 C 4.320312 -9.3125 4.539062 -9.253906 4.78125 -9.140625 C 5.03125 -8.992188 5.265625 -8.691406 5.484375 -8.234375 C 5.703125 -7.785156 5.894531 -7.238281 6.0625 -6.59375 C 6.238281 -5.957031 6.394531 -5.28125 6.53125 -4.5625 C 6.675781 -3.851562 6.796875 -3.164062 6.890625 -2.5 C 6.992188 -1.832031 7.070312 -1.242188 7.125 -0.734375 C 7.15625 -0.503906 7.113281 -0.316406 7 -0.171875 C 6.894531 -0.0234375 6.757812 0.046875 6.59375 0.046875 C 6.414062 0.046875 6.273438 -0.0078125 6.171875 -0.125 C 6.078125 -0.25 6.023438 -0.398438 6.015625 -0.578125 C 6.003906 -0.679688 6.003906 -0.789062 6.015625 -0.90625 C 6.035156 -1.03125 6.039062 -1.140625 6.03125 -1.234375 C 6.019531 -1.359375 6.003906 -1.484375 5.984375 -1.609375 C 5.960938 -1.742188 5.929688 -1.875 5.890625 -2 C 5.847656 -2.132812 5.765625 -2.195312 5.640625 -2.1875 C 5.304688 -2.164062 4.9375 -2.148438 4.53125 -2.140625 C 4.125 -2.140625 3.722656 -2.140625 3.328125 -2.140625 C 2.941406 -2.140625 2.609375 -2.132812 2.328125 -2.125 C 2.203125 -2.125 2.125 -2.0625 2.09375 -1.9375 C 2.050781 -1.769531 2 -1.554688 1.9375 -1.296875 C 1.882812 -1.035156 1.828125 -0.78125 1.765625 -0.53125 C 1.710938 -0.289062 1.65625 -0.109375 1.59375 0.015625 C 1.550781 0.109375 1.492188 0.191406 1.421875 0.265625 C 1.347656 0.347656 1.242188 0.390625 1.109375 0.390625 Z M 2.46875 -3.484375 C 2.445312 -3.316406 2.519531 -3.234375 2.6875 -3.234375 C 3.09375 -3.253906 3.539062 -3.257812 4.03125 -3.25 C 4.53125 -3.238281 5.019531 -3.253906 5.5 -3.296875 C 5.644531 -3.296875 5.707031 -3.375 5.6875 -3.53125 C 5.601562 -4.03125 5.5 -4.578125 5.375 -5.171875 C 5.257812 -5.765625 5.117188 -6.320312 4.953125 -6.84375 C 4.796875 -7.375 4.609375 -7.800781 4.390625 -8.125 C 4.347656 -8.1875 4.296875 -8.210938 4.234375 -8.203125 C 4.179688 -8.203125 4.128906 -8.164062 4.078125 -8.09375 C 3.660156 -7.382812 3.335938 -6.640625 3.109375 -5.859375 C 2.878906 -5.078125 2.664062 -4.285156 2.46875 -3.484375 Z M 2.46875 -3.484375 "/></g></g></g><g fill="#ffffff" fill-opacity="1"><g transform="translate(84.298594, 18.847518)"><g/></g></g></svg>